<?xml version="1.0" encoding="UTF-8"?> <svg xmlns="http://www.w3.org/2000/svg" width="55" height="55" viewBox="0 0 55 55" fill="none"><path d="M3.22266 26.4688C3.22266 12.9378 14.1917 1.96875 27.7227 1.96875C41.2536 1.96875 52.2227 12.9378 52.2227 26.4688C52.2227 39.9997 41.2536 50.9688 27.7227 50.9688C14.1917 50.9688 3.22266 39.9997 3.22266 26.4688Z" fill="white"></path><path d="M7.07969 29.4078C8.11803 31.9787 7.96829 33.9044 9.01729 36.3046C11.2051 41.6487 17.8283 46.5802 23.6673 47.5702C24.9909 47.849 26.3508 48.006 27.7227 48.0359C30.8752 48.1094 34.0499 47.4873 36.9193 46.2226C37.1299 46.1299 37.2814 46.126 37.3768 46.0817C38.2795 45.6763 39.6884 44.7937 40.4899 44.2277C42.239 43.1126 44.7949 40.5261 45.8915 38.9598C46.3817 38.3142 46.8217 37.6088 47.0975 37.4003C47.254 37.1453 47.2252 36.9448 47.2568 36.8744C47.2574 36.8736 47.2579 36.8729 47.2584 36.8722C47.3628 36.6466 47.7287 36.1232 47.7837 35.9945C47.7919 35.9753 47.6576 36.0532 47.8286 35.7612C47.8434 35.7348 47.8865 35.7856 48.008 35.5276C48.0441 35.4611 48.3424 34.555 48.4314 34.2988C48.7706 33.4638 49.4587 31.4072 49.6331 30.331C49.6639 30.1676 49.6479 30.0678 49.6769 29.8945C49.6918 29.8051 49.749 29.6771 49.7531 29.6494C49.7726 29.5287 49.683 28.9802 49.9776 29.2091C50.0296 28.6482 49.9 28.8017 49.8336 28.7819C49.8931 28.1835 50.0611 27.8984 49.9136 27.7307C49.9459 27.3116 49.9665 26.893 49.9753 26.4688C50.0302 23.9042 49.6445 21.3358 48.8231 18.8959C48.7997 18.9033 48.7763 18.9108 48.7529 18.9182C48.5534 18.0502 48.2806 17.8367 48.2138 17.3155C48.0623 17.042 47.9061 16.7733 47.7439 16.5068C44.4064 9.20329 36.7317 4.17022 28.7207 3.79371C28.384 3.77596 28.3018 3.72611 27.7397 3.71494C27.734 3.71485 27.7284 3.71477 27.7227 3.7147C27.1024 3.70499 26.2453 3.77336 25.4455 3.842C24.7331 3.89759 23.6845 4.00165 22.902 4.15639C22.7248 4.19053 22.6034 4.24328 22.5836 4.24733C22.4671 4.2715 22.4519 4.23313 22.3389 4.25739C22.2035 4.28672 22.0497 4.35389 21.8934 4.39077C21.3104 4.52635 20.6927 4.72667 20.6198 4.74937C20.2709 4.85472 20.1826 4.84554 20.1538 4.85419C19.7681 4.97992 19.9246 4.96479 19.8283 4.99585C19.3303 5.16163 18.9493 5.21119 18.3205 5.57193C18.3253 5.53489 18.3301 5.49781 18.3351 5.46071C17.8216 5.66624 18.1915 5.59701 18.0947 5.65644C18.0529 5.67319 16.9784 6.1774 16.9003 6.2251C16.6153 6.36742 16.5878 6.33673 16.5631 6.34893C16.5012 6.37785 15.8244 6.80832 15.4555 6.99681C15.0172 7.21777 15.4608 6.84374 15.3493 6.89426C15.3296 6.90171 14.9002 7.18344 14.8287 7.20069C14.7487 7.21842 15.123 6.97758 15.1114 6.97206C15.1017 6.96507 14.4498 7.32331 14.5465 7.21384C14.6171 7.11276 15.4962 6.61465 15.6734 6.49558C15.7022 6.47503 15.6196 6.46695 15.6456 6.44952C15.7359 6.35501 17.8032 5.28107 17.9149 5.2711C17.8142 5.34157 17.7144 5.41262 17.6151 5.48435C17.7612 5.41827 17.908 5.35375 18.0555 5.29071C17.8546 5.4 17.6563 5.51168 17.4585 5.6267C17.8422 5.64285 18.6928 5.07136 18.7 4.97081C18.701 4.92191 18.0746 5.0629 18.5908 4.77636C18.504 4.8 18.4169 4.82434 18.3301 4.84914C18.1676 4.93822 18.0065 5.029 17.8468 5.12143C17.9631 5.08137 18.0798 5.04226 18.1967 5.00412C18.1607 5.03399 18.1248 5.06393 18.0891 5.09395C17.7841 5.25113 17.4833 5.4145 17.1856 5.58451C17.0237 5.65407 17.0391 5.60399 16.9276 5.65207C15.5475 6.27808 16.4712 5.91321 15.6046 6.38822C15.4726 6.4429 15.3407 6.49911 15.2095 6.55654C15.2966 6.60113 14.8931 6.78451 14.4729 7.11047C14.5104 7.05309 14.5483 6.99571 14.5863 6.93848C13.9435 7.36109 12.6277 8.22326 13.0522 8.07777C12.9056 8.17705 12.7601 8.27798 12.6155 8.38089C12.5152 8.49386 12.4161 8.60755 12.3182 8.72194C12.1598 8.85349 12.0031 8.98709 11.8481 9.12283C11.8389 9.11413 11.8296 9.10542 11.8204 9.09671C11.9426 8.98658 12.0659 8.87782 12.1904 8.7703C12.0714 8.82184 11.9526 8.87461 11.8342 8.9286C11.7474 9.01458 11.6614 9.10122 11.576 9.18844C11.9785 8.87092 11.52 9.36751 11.4389 9.51633C11.1406 9.8237 10.9018 9.97272 10.7983 10.0733C10.7469 10.1188 10.2834 10.775 10.4055 10.4626C10.1353 10.7721 9.87331 11.0881 9.61956 11.4107C9.50844 11.5269 9.39866 11.6442 9.28993 11.7628C9.46495 11.4549 8.77324 12.2009 9.22432 11.6041C9.56553 11.1609 9.7005 11.0942 9.87475 10.8952C10.0332 10.7168 10.0906 10.5987 10.2667 10.4071C11.4586 9.12641 12.5492 8.19366 13.9075 7.24343C14.1766 7.05688 14.4135 6.87457 14.5988 6.75613C14.8085 6.62308 14.5746 6.83291 14.8334 6.6516C15.1062 6.46264 15.1473 6.39236 15.2215 6.34543C15.2678 6.31641 15.435 6.2569 15.5718 6.17639C16.1318 5.83968 16.9689 5.37132 17.0538 5.33259C17.1415 5.26913 18.8463 4.55044 18.9364 4.54107C18.9817 4.52742 18.9404 4.68924 19.2672 4.40794C19.3852 4.36078 19.5039 4.31446 19.6226 4.2692C19.6128 4.30211 19.603 4.33506 19.5932 4.368C20.2653 4.02235 20.0409 4.15863 20.7301 3.93524C22.3776 3.39181 24.923 2.98185 26.815 2.93975C27.1823 2.92755 27.3519 2.8985 27.7227 2.89155C27.7777 2.89066 27.8372 2.8904 27.9023 2.89102C28.3722 2.88602 29.5739 3.07508 29.321 2.91031C30.3406 3.123 30.5312 2.93546 31.0263 3.14461C31.091 3.13354 31.1558 3.12271 31.2206 3.11211C31.7637 3.28845 31.9467 3.2427 32.5502 3.35807C32.8107 3.41077 32.4922 3.43432 33.0366 3.4522C33.1344 3.48343 33.2318 3.51528 33.3288 3.54774C33.3004 3.56427 33.272 3.58083 33.2437 3.59743C33.8203 3.72393 33.855 3.75228 33.8116 3.64959C34.0848 3.74054 34.3554 3.83637 34.6233 3.93692C34.6655 3.92031 34.7077 3.90379 34.7501 3.88736C34.6814 3.68389 29.4775 2.62709 27.7227 2.82173C27.5263 2.82383 27.3761 2.82817 27.2838 2.83169C26.2138 2.75798 24.0843 3.0588 23.2387 3.22471C22.9006 3.28274 22.7364 3.25375 22.244 3.35789C21.7528 3.46158 21.1532 3.68024 20.8989 3.75805C20.0162 3.93031 16.1309 5.61661 18.7515 4.4201C18.6642 4.42533 18.5769 4.43111 18.4895 4.43744C17.4698 4.97654 17.8298 4.75403 16.9655 5.16054C16.6013 5.33129 15.7966 5.84571 15.7834 5.71662C16.4221 5.32498 17.1504 5.00206 17.7403 4.7336C17.7971 4.70511 18.4804 4.34304 18.856 4.21593C19.1953 4.10103 19.0049 4.29476 19.6892 3.90548C20.2763 3.84075 20.5585 3.63254 20.7007 3.57535C20.9463 3.47874 20.9929 3.53392 21.2481 3.4709C21.5265 3.40314 21.7074 3.31278 21.7454 3.30274C22.119 3.1819 24.1347 2.80071 24.2343 2.83508C24.1549 2.85844 24.0758 2.88215 23.996 2.90639C24.523 2.84868 24.4037 2.79847 24.5411 2.77134C24.6443 2.75837 24.7477 2.74607 24.8513 2.73443C24.812 2.75349 24.7728 2.77263 24.7336 2.79186C25.3566 2.72034 24.8757 2.71376 25.7613 2.63875C26.3271 2.59484 26.9131 2.63488 26.9672 2.62974C26.9834 2.62814 26.8043 2.59496 27.0345 2.58396C27.2288 2.57496 27.4965 2.57013 27.7227 2.57748C27.9402 2.5843 28.1174 2.6016 28.1531 2.62788C28.3401 2.62508 28.3254 2.57425 28.3503 2.57372C28.4594 2.555 30.323 2.66927 30.6571 2.72882C31.5761 2.83573 32.5957 3.03615 33.5695 3.27749C33.6695 3.30232 33.5975 3.31879 33.6976 3.34381C33.8603 3.38045 34.6944 3.56638 34.8158 3.60465C35.1253 3.68757 35.9073 3.98613 36.035 4.02092C36.0535 4.02542 35.8102 3.88453 36.1185 3.98439C36.46 4.09755 36.2565 4.0877 36.2747 4.09511C36.9456 4.37986 37.3827 4.52785 37.8377 4.73096C37.985 4.79687 38.2319 4.97008 38.441 5.06052C38.4651 5.07092 38.4388 5.0075 38.4628 5.01718C38.7814 5.15186 39.0254 5.3787 39.1526 5.45511C39.4644 5.64338 39.321 5.49348 39.3378 5.50215C39.5509 5.61918 39.8228 5.80158 40.1382 5.9916C41.5422 6.84681 42.6275 7.65218 43.9132 8.83634C44.0744 8.98572 44.2307 9.1991 44.2546 9.22247C44.329 9.2945 44.3457 9.23447 44.558 9.44671C45.0039 9.89555 45.4052 10.324 45.8131 10.7991C45.8952 10.895 45.8917 10.9686 45.9526 11.0427C46.1617 11.2853 46.9404 12.0743 46.8148 12.1914C47.3118 12.6173 47.4497 13.0447 47.7285 13.4729C48.4032 14.4846 49.3161 16.1634 49.7459 17.299C49.8388 17.5364 49.8411 17.6642 49.89 17.797C49.9893 18.0319 50.4763 19.3991 50.4817 19.4778C50.51 19.6258 50.3033 19.5908 50.6689 20.2829C50.7941 20.7158 50.699 20.6831 50.7172 20.7741C50.8555 21.4796 51.1561 22.138 50.9682 22.0399C51.1632 22.8563 51.3183 23.3885 51.199 23.7477C51.2751 23.7341 51.3669 24.1236 51.3717 24.6008C51.1993 24.1266 51.1413 24.193 51.014 23.0299C51.0118 23.0117 51.0719 23.0384 51.0697 23.0201C51.0507 22.855 50.9701 22.5109 50.9233 22.2299C50.8761 21.9485 50.9412 22.0974 50.9198 21.9852C50.8998 21.8825 50.8486 21.896 50.8189 21.7482C50.7218 21.2653 50.6074 20.8464 50.5387 20.5769C50.4954 20.406 50.4892 20.2032 50.4528 20.0712C50.3181 19.5599 49.9419 18.5046 49.6988 17.8767C49.6492 17.7457 49.7189 17.7814 49.6086 17.4948C49.5954 17.4612 49.4987 17.3607 49.3837 17.1174C49.2684 16.8746 49.207 16.674 49.1302 16.5195C49.0656 16.3907 49.0498 16.4648 48.9208 16.1996C48.8508 15.9593 47.5021 13.5175 47.3895 13.4068C47.2785 13.2191 47.2724 13.0968 47.1906 12.991C47.1759 12.9725 47.1029 12.9749 47.053 12.9107C46.2682 11.8271 44.37 9.5397 43.178 8.56135C40.7567 6.46125 38.1226 4.98154 35.0562 3.96322C34.9984 3.95415 34.9406 3.94528 34.8828 3.93661C35.1939 4.03796 35.502 4.14557 35.8071 4.2593C35.8001 4.2846 35.7931 4.3099 35.786 4.3352C36.1964 4.4943 36.1634 4.418 36.1653 4.37787C36.312 4.45209 36.4576 4.52778 36.6021 4.6049C36.7679 4.56874 37.7437 5.06368 38.24 5.32363C38.5661 5.48792 38.9634 5.66373 39.1304 5.76118C39.4825 5.96647 39.4427 6.01362 39.4701 6.03003C39.5165 6.05764 40.0299 6.3028 40.3727 6.52834C40.8778 6.86302 40.8829 6.96932 41.5963 7.3934C42.4219 8.06026 43.3322 8.80055 44.1501 9.5982C43.9371 9.50573 44.7178 10.1685 45.0231 10.5157C46.9361 12.5833 48.7291 15.5977 49.6374 18.2815C49.7581 18.6254 49.793 18.9025 49.8573 19.0943C49.8918 19.1982 49.9677 19.2239 50.0051 19.3725C50.0111 19.3985 49.961 19.4353 50.0324 19.7083C50.2268 20.3832 50.698 22.0817 50.6366 22.5425C50.8563 23.8374 50.9658 25.1515 50.9657 26.4688C50.9655 27.563 50.8907 28.6471 50.7394 29.7281C50.7046 29.7841 50.6696 29.8397 50.6343 29.8951C50.7125 30.3701 50.2684 32.1236 50.0028 32.961C49.5841 34.4488 48.8395 36.2849 48.1794 37.4709C48.0383 37.7298 47.8832 37.9197 47.7418 38.1591C47.681 38.2621 47.6485 38.4162 47.583 38.5225C46.8582 39.7259 45.655 41.2031 44.6807 42.2191C42.4817 44.5406 39.9659 46.3054 37.0072 47.5932C34.0801 48.8603 30.9 49.5028 27.7227 49.4871C20.047 49.5237 12.5759 45.3876 8.54115 38.9601C8.46424 38.8389 8.53235 38.8036 8.47387 38.7095C8.12034 38.1595 7.36254 36.9083 7.0642 36.2291C6.81285 35.6943 6.57882 34.784 6.39946 34.6366C6.96235 36.6648 8.05188 38.6489 9.33584 40.4358C9.42724 40.5631 9.38259 40.6223 9.39324 40.6386C9.59269 40.9371 9.52987 40.6995 9.85632 41.1005C9.95206 41.2409 10.8492 42.5952 10.892 42.2943C11.0555 42.6637 13.0162 44.5488 13.4743 44.8168C13.6048 44.9079 13.5565 44.7863 13.5834 44.8031C13.6998 44.8756 13.6938 44.9854 13.79 45.0616C14.0443 45.2673 14.7643 45.6864 14.8957 45.7715C15.1907 45.9795 16.0761 46.617 16.5075 46.8308C16.8998 47.03 16.8709 46.9079 17.2093 47.0763C17.4779 47.2061 17.1503 47.1321 17.7394 47.4488C18.0291 47.6107 19.1131 48.0224 19.3769 48.1178C19.6387 48.2206 19.9123 48.3823 20.2811 48.505C20.8112 48.6898 21.9887 48.9984 22.5468 49.1031C22.5801 49.1099 22.676 49.0601 22.757 49.0799C22.9252 49.1205 22.8565 49.1939 22.9831 49.2302C23.1023 49.2919 25.3505 49.6413 25.7372 49.6465C26.0019 49.6709 26.189 49.6331 26.3357 49.6432C26.4508 49.6511 26.4602 49.7226 26.5774 49.73C26.6138 49.732 26.9247 49.6873 27.2343 49.6967C27.3301 49.6998 27.5135 49.7106 27.7227 49.7205C28.1534 49.7424 28.6856 49.7519 28.7719 49.7482C28.8558 49.745 28.7609 49.6998 29.0091 49.6896C29.2356 49.6798 29.3884 49.7343 29.5175 49.7263C29.817 49.7075 30.1429 49.6235 30.4596 49.5881C31.3649 49.4804 31.3277 49.5515 31.3834 49.5489C31.5356 49.5329 31.584 49.4516 31.6329 49.4422C31.8408 49.4038 32.3431 49.298 32.5265 49.2564C32.7549 49.206 32.8666 49.2519 33.1092 49.1968C33.29 49.1553 33.6371 49.0048 34.0432 48.8897C34.9576 48.6341 36.0251 48.2505 36.8844 47.8884C37.1414 47.7804 37.2048 47.8177 37.2837 47.7849C37.6976 47.6104 37.8931 47.439 38.0088 47.3844C38.8358 47.0057 40.3011 46.2736 41.0041 45.7897C41.2992 45.6055 42.4932 44.6696 43.1369 44.1061C43.2114 44.0426 43.1725 44.1372 43.25 44.0602C43.4348 43.8752 43.3535 43.8216 43.4536 43.7358C43.5019 43.6946 43.6452 43.6359 43.7848 43.5131C44.5076 42.8747 44.9276 42.3573 45.2241 42.0342C48.0866 38.9255 50.0585 34.9228 50.8314 31.038C50.9194 30.6064 50.9673 30.058 51.1018 29.4052C51.1305 29.3881 51.1593 29.3709 51.188 29.3536C51.1653 29.3272 51.1425 29.3009 51.1197 29.2747C51.1947 28.5204 51.1864 28.2371 51.2603 27.4675C51.2664 27.4019 51.3932 27.2024 51.2498 27.0728C51.3369 26.5493 51.3045 26.5801 51.2786 26.4688C51.2662 26.4177 51.2543 26.3363 51.25 26.1581C51.2362 25.5907 51.2452 25.0401 51.21 24.4899C51.2424 24.1816 51.4457 25.4461 51.4398 25.5284C51.4439 25.662 51.3749 25.8029 51.3732 25.9314C51.3707 26.1252 51.3834 26.3162 51.3873 26.4688C51.3911 26.616 51.3869 26.7266 51.3542 26.7682C51.4124 27.2621 51.3915 26.6481 51.4516 26.7101C51.4212 27.0403 51.3838 27.3677 51.3397 27.6923C51.5605 27.8779 51.0965 29.6597 51.2611 29.5511C51.2094 29.6903 51.1564 29.8284 51.1022 29.9655C51.2059 30.6236 51 30.9695 50.7504 31.7778C50.7902 31.7245 50.8298 31.671 50.8692 31.6172C50.8788 31.6373 50.7432 32.3718 50.6965 32.0861C50.6514 32.8625 50.417 32.7664 50.3915 33.4706C50.2886 33.8655 50.2693 33.6036 50.0324 34.29C49.89 34.6943 49.7474 35.2159 49.5615 35.6598C49.5184 35.7623 49.4422 35.7824 49.4025 35.8727C49.3627 35.9629 49.3987 36.0315 49.3507 36.1413C49.2518 36.3685 49.0752 36.6388 49.0105 36.7789C48.9524 36.9045 48.9132 37.1063 48.7653 37.4062C48.2367 38.4474 48.3286 38.0953 48.2174 38.2432C48.0934 38.3994 48.1109 38.5739 47.8922 38.9036C47.8702 38.9365 47.87 38.8162 47.804 38.9264C47.7501 39.0148 47.7827 39.0968 47.6052 39.3918C47.5539 39.5215 46.3115 41.2509 46.0856 41.4857C45.7751 41.8751 44.9892 42.6558 44.6248 43.0156C44.486 43.156 44.3763 43.3454 44.2241 43.4911C43.7234 43.9765 42.8794 44.7087 42.1728 45.239C41.5431 45.7313 40.3088 46.3853 39.9935 46.7022C39.0415 47.2848 38.7425 47.3019 38.6703 47.3428C38.4676 47.4432 38.4049 47.5511 38.1488 47.68C35.2413 49.1928 31.0743 50.1226 27.7227 50.0488C27.2682 50.0462 26.8339 50.0313 26.4183 50.0074C18.2722 49.6199 10.5095 44.5794 6.86347 37.2783C6.82175 37.2754 6.78 37.2724 6.73822 37.2694C7.15335 38.1396 7.68434 39.1504 8.21755 39.946C8.91643 41.0247 10.2489 42.3691 10.7476 43.1957C10.463 42.9384 10.1111 42.4168 10.0287 42.5067C10.4808 43.021 10.9551 43.5161 11.4501 43.9904C11.4733 43.9353 11.4967 43.8804 11.5201 43.8255C12.0486 44.3004 12.5923 44.7837 13.1586 45.2171C13.257 45.2923 13.2187 45.1986 13.3039 45.2644C13.3993 45.3379 13.3036 45.3287 13.3212 45.3428C13.5632 45.5291 13.6685 45.5409 13.6976 45.5639C13.7732 45.622 13.6836 45.6185 13.8985 45.7915C14.2987 46.1119 14.6775 46.2043 14.4567 46.3181C14.5941 46.4107 14.7325 46.5019 14.8718 46.5916C14.9397 46.5653 15.0073 46.5387 15.0747 46.5118C15.8116 47.2567 16.4294 47.1143 16.7693 47.6658C16.9568 47.7072 17.1444 47.7463 17.332 47.7831C17.3999 47.8815 17.4685 47.9793 17.5382 48.0767C17.5779 48.0404 17.6175 48.0041 17.6569 47.9676C18.5417 48.4285 19.552 48.7632 20.4542 49.0615C21.0845 49.2669 21.2311 49.3279 21.8014 49.4762C23.0722 49.779 21.7827 49.574 22.8282 49.9155C22.7844 49.8455 22.741 49.7753 22.6981 49.705C22.8793 49.7223 23.0592 49.7373 23.239 49.7503C23.3524 49.8218 23.4668 49.8924 23.5824 49.9621C24.1737 49.8127 24.4948 50.0576 24.5719 50.0685C24.6333 50.0748 24.8581 49.9611 25.4992 50.1524C25.2476 49.9235 25.9969 50.1972 26.0613 50.1998C26.1211 50.2074 26.8759 50.2058 27.1815 50.2122C27.3073 50.2163 27.5075 50.2325 27.7227 50.2444C27.9195 50.2555 28.1274 50.2628 28.2991 50.2582C28.6162 50.2491 28.5811 50.1802 28.6042 50.1791C28.992 50.1591 28.7502 50.2218 29.0324 50.2113C29.3156 50.1996 29.5293 50.1255 29.5901 50.1262C29.6208 50.1267 29.5237 50.1976 29.6639 50.1931C30.0395 50.1829 30.7144 50.0559 31.1386 49.9959C31.2888 49.9755 31.4881 49.9994 31.6571 49.9735C31.916 49.9334 32.0232 49.8419 32.1721 49.8167C32.2235 49.808 32.5752 49.8541 32.9828 49.7465C33.0613 49.7254 33.2337 49.4532 33.6137 49.6924C33.6258 49.6424 33.6378 49.5924 33.6497 49.5424C34.9737 49.0811 35.4577 49.2775 35.937 48.7654C36.9031 48.441 36.295 48.8042 36.4064 48.7835C36.4791 48.7692 36.7764 48.6135 36.8107 48.6011C36.8722 48.5801 36.8774 48.6216 36.9431 48.5943C38.1426 48.0715 37.5751 48.2271 37.9305 48.0141C38.7606 47.4874 39.5591 47.3606 37.9939 48.0541C38.0035 48.0743 38.0131 48.0945 38.0228 48.1147C38.3983 47.9213 39.3474 47.4277 39.085 47.6945C38.8923 47.9342 36.5329 48.9396 37.9073 48.4547C38.2186 48.3403 38.3361 48.1952 38.9177 48.0729C39.2585 47.9038 39.21 47.7021 39.6956 47.5223C39.5875 47.5026 39.4797 47.4821 39.3723 47.4607C39.9329 47.0491 40.721 46.7035 41.14 46.3718C41.2859 46.2604 41.6212 45.6175 41.6911 45.974C41.9321 45.7911 43.0977 44.9589 43.275 44.7552C43.3175 44.7058 43.276 44.5312 43.9957 43.9565C44.0575 43.929 44.1193 43.9012 44.181 43.8731C43.6059 44.4969 44.7406 43.52 44.559 43.9166C44.4087 43.9622 43.8824 44.3867 43.7752 44.4288C43.5941 44.5027 43.9508 44.079 43.4407 44.5563C43.2891 45.0574 44.1564 44.1243 44.1866 44.4436C44.7865 43.7213 44.9225 43.7305 45.0772 43.5853C45.723 42.9538 46.081 42.511 46.6455 41.8724C46.7415 41.6849 45.6873 42.8061 45.5657 42.9517C45.8977 42.3104 45.0866 43.1895 44.8011 43.6202C44.7304 43.6096 44.6599 43.5986 44.5894 43.5873C45.0789 43.1509 45.5307 42.6931 45.9211 42.1725C45.9648 42.1544 46.0086 42.1362 46.0523 42.1178C45.9815 42.2494 45.9094 42.3805 45.836 42.5113C46.2336 42.1362 45.8971 42.2788 46.4724 41.8159C46.4374 41.7582 46.4022 41.7006 46.367 41.6431C46.8203 41.1231 47.2517 40.5828 47.6598 40.0236C47.7675 39.662 48.502 38.5609 48.5125 38.8486C48.7966 38.3911 48.3854 38.9194 48.6056 38.4654C48.7013 38.2681 48.9039 37.8914 48.9913 37.8187C49.1072 37.9312 48.8112 38.5054 48.8017 38.7267C48.9335 38.6599 50.1688 35.9146 50.1908 36.2151C50.3057 36.0013 50.1803 36.0676 50.324 35.6581C50.738 34.5191 51.4522 32.7516 51.4337 31.7446C51.0562 32.8292 51.0817 33.1845 50.8202 34.0245C50.7121 34.5815 49.3352 37.7172 49.4944 36.9448C49.4584 37.0662 49.4214 37.1875 49.3834 37.3086C49.2834 37.4001 49.1829 37.4904 49.0817 37.5795C49.24 37.2627 49.392 36.941 49.5358 36.6183C49.615 36.562 49.694 36.505 49.7727 36.4473C49.7579 36.3975 49.743 36.3478 49.728 36.2983C49.7831 36.1592 49.837 36.0197 49.8896 35.8795C49.9107 35.9341 49.9316 35.9889 49.9524 36.0438C50.0511 35.8336 50.1459 35.624 50.2383 35.4115C50.1646 35.4492 50.0908 35.4864 50.0169 35.5231C50.4036 34.5118 50.2976 34.8647 50.5967 34.3314C50.7504 33.9082 50.4141 34.596 50.6847 33.6848C50.9708 32.6215 50.9441 33.3637 51.26 31.9649C51.2388 31.9387 51.2176 31.9127 51.1963 31.8866C51.2934 31.5863 51.3848 31.2822 51.4696 30.9785C51.4295 31.0133 51.3893 31.0479 51.3491 31.0823C51.491 30.4484 51.5525 29.5559 51.7025 29.3566C51.5585 30.0024 51.7744 30.0267 51.8409 29.862C51.9149 29.6816 52.1305 28.0789 52.1093 26.4688C52.1067 25.0743 51.9355 23.6942 51.8673 23.2242C51.6851 21.9315 51.542 20.9434 51.1217 19.8204C51.3052 20.6097 51.877 23.3872 51.8303 23.9376C51.8296 23.9921 51.6324 23.9947 51.8847 24.3133C51.9188 24.9671 51.9677 25.6915 51.9797 26.4688C51.9879 27.003 51.9792 27.5471 51.9383 28.1098C51.8828 28.0639 51.8273 28.0182 51.7718 27.9728C51.9248 27.2589 51.7442 26.5804 51.8299 26.4688C51.8444 26.4498 51.8666 26.4469 51.8991 26.4629C51.8994 26.294 51.8979 26.1256 51.8948 25.9575C51.8562 25.9583 51.8176 25.9591 51.779 25.9599C51.7744 25.7077 51.766 25.4568 51.7537 25.2061C51.7921 25.2041 51.8305 25.2021 51.8688 25.2001C51.8584 24.9897 51.8452 24.78 51.8294 24.571C51.7897 24.5522 51.75 24.5335 51.7103 24.5149C51.7665 23.8804 51.2278 21.8025 51.5945 22.6953C51.5494 22.4031 51.4989 22.1126 51.4433 21.824C51.4165 21.8302 51.3897 21.8364 51.3629 21.8426C51.3355 21.7196 51.3073 21.5972 51.2778 21.4738C51.3106 21.5095 51.3433 21.5453 51.376 21.5813C51.2173 21.0206 51.2117 20.4591 51.0288 20.1104C51.0765 20.3586 51.1198 20.606 51.1591 20.8539C51.0882 20.3781 50.7737 19.5421 50.7486 19.4693C50.6788 19.2398 50.6924 19.1002 50.6133 18.8504C50.541 18.6251 50.5111 18.6699 50.4984 18.6277C50.1129 17.4152 50.4785 17.7866 50.0151 17.3323C50.0249 17.2599 50.0343 17.1875 50.0433 17.1148C49.9829 17.0487 49.922 16.9823 49.8609 16.9167C49.7148 16.569 49.5611 16.2261 49.3989 15.8859C49.4136 16.0189 49.4267 16.1512 49.4386 16.2835C49.183 15.7845 49.1396 15.5117 49.1173 15.4617C49.0514 15.3219 48.9686 15.2858 48.9465 15.2438C47.8362 13.239 48.5636 14.4313 48.1396 13.3351C47.8468 13.0338 48.0055 13.4284 47.9655 13.522C47.7044 13.044 47.5904 12.915 47.2628 12.444C47.1772 12.3218 47.1181 12.1658 47.0623 12.0896C47.0142 12.0234 46.8233 11.8473 46.703 11.6928C46.503 11.4348 46.252 11.0782 45.9594 10.7388C45.72 10.4533 44.9292 9.63191 44.3523 9.08643C44.1075 8.85215 44.1898 8.87912 44.1262 8.81887C44.0996 8.79376 43.8749 8.64751 43.7129 8.50301C42.3939 7.32029 40.9221 6.2338 39.361 5.36747C38.2621 4.7562 37.0839 4.25537 35.9029 3.82116C35.6518 3.72949 35.7954 3.74799 35.6856 3.70771C35.6475 3.69462 35.5854 3.72774 35.1993 3.57598C35.0593 3.52174 35.235 3.53894 35.0953 3.49145C35.0272 3.46914 34.9834 3.50234 34.5811 3.39164C33.8478 3.1936 33.4636 3.04213 33.3976 3.02656C33.2723 2.99992 33.2998 3.0465 33.1344 3.00908C32.3231 2.8282 31.6396 2.71363 30.9079 2.61654C30.5663 2.53973 28.191 2.38376 28.0576 2.40272C27.7819 2.3849 28.0069 2.31724 27.7227 2.30919C27.704 2.30872 27.6831 2.30854 27.6597 2.30871C27.5536 2.32849 27.4479 2.34891 27.3426 2.36995C27.4692 2.37969 27.5959 2.39045 27.7227 2.40221C27.7641 2.40605 27.8054 2.41001 27.8467 2.41407C27.8058 2.41149 27.7644 2.40949 27.7227 2.40801C27.2922 2.39222 26.8326 2.43426 26.5245 2.44749C26.4621 2.4486 25.8789 2.44619 25.5857 2.47697C25.7094 2.452 25.8336 2.42792 25.9582 2.40475C25.9128 2.3955 25.8675 2.38639 25.822 2.37741C25.2348 2.43997 24.6073 2.50968 24.0088 2.59803C23.7912 2.63068 23.8599 2.58981 23.6401 2.62498C22.3656 2.85235 22.7149 2.90136 21.4489 2.98206C21.8587 2.88022 23.3609 2.53613 23.5858 2.518C23.7419 2.49452 24.3676 2.59963 24.1193 2.43374C25.3551 2.27124 24.2948 2.51006 25.448 2.36416C25.4226 2.34164 25.3972 2.31917 25.3718 2.29676C25.7738 2.24342 26.0745 2.21127 26.3246 2.24131C26.3796 2.15438 27.0529 2.12523 27.7227 2.13825C28.0217 2.14313 28.3162 2.15463 28.5504 2.16031C29.6474 2.18419 30.8872 2.28371 31.9614 2.47031C32.3316 2.53404 32.5288 2.62638 32.5747 2.63528C32.6415 2.64841 32.8406 2.64555 32.9749 2.67506C33.4815 2.77094 34.9574 3.26219 35.3619 3.27979C32.9025 2.46736 30.3163 2.05614 27.7227 2.05537C27.2516 2.05508 26.7865 2.06796 26.3192 2.09409C26.6993 2.0939 23.6347 2.40447 23.4835 2.47805C23.3404 2.5007 23.4537 2.44135 23.4108 2.44652C23.0911 2.48629 22.8353 2.59586 22.7351 2.61659C22.6589 2.63248 22.4993 2.63833 22.2299 2.70051C22.1805 2.71194 22.173 2.74203 22.1201 2.75448C21.7702 2.83643 21.4255 2.92484 21.0774 3.023C21.0562 3.02869 20.9574 3.01506 20.8697 3.04057C20.7817 3.06616 20.7066 3.13025 20.6846 3.13699C20.409 3.21811 19.9275 3.3474 19.6686 3.43864C19.5787 3.47015 19.6506 3.47551 19.5499 3.51078C19.2417 3.62094 19.3226 3.53008 18.9472 3.68809C18.8218 3.74196 18.8454 3.77805 18.6016 3.86949C18.4293 3.93483 18.4187 3.85719 18.3905 3.86569C18.3512 3.87636 17.7875 4.18246 17.5783 4.22601C17.94 3.91685 17.1209 4.42894 17.1888 4.46137C16.9549 4.55793 16.722 4.65845 16.4911 4.76251C16.4208 4.81448 16.351 4.86674 16.2814 4.91931C15.3535 5.34777 14.8371 5.70378 13.994 6.24737C13.9513 6.27072 13.2432 6.73623 13.2657 6.70034C13.6554 6.37388 14.0763 6.08673 14.3813 5.96113C14.7686 5.57573 14.8235 5.6413 15.5608 5.19405C15.8094 5.04622 15.8127 5.00948 15.8415 4.9927C16.8105 4.41771 18.4641 3.67358 19.2132 3.51401C19.4032 3.41441 18.6843 3.67553 18.9553 3.55198C19.0785 3.41209 22.829 2.32178 21.6565 2.7671C21.7804 2.73231 21.9046 2.69846 22.0293 2.66555C22.129 2.52926 22.7661 2.41563 22.7162 2.53723C22.7715 2.50333 22.8265 2.46968 22.8817 2.43621C22.9957 2.39446 23.1333 2.35728 23.3289 2.31576C23.8533 2.18051 26.2501 1.88706 27.7227 1.92433C28.3483 1.92604 28.7989 1.9495 28.8709 1.94749C28.8776 1.92107 28.8843 1.89466 28.891 1.86825C28.5025 1.84463 28.1136 1.83375 27.7227 1.83379C26.102 1.83635 24.4899 2.01308 22.7379 2.31264C22.8054 2.32306 22.8724 2.33388 22.9395 2.34497C22.0718 2.48252 21.2101 2.66793 20.3615 2.89975C21.233 2.57256 22.6782 2.18506 23.6519 2.06761C23.8253 2.04536 23.7044 2.09941 23.7446 2.09688C23.8497 2.09089 23.9516 2.01353 24.3221 1.95538C24.6931 1.89234 25.6383 1.83981 25.7235 1.83563C25.8881 1.81892 26.3367 1.72 26.6197 1.70885C26.9922 1.69423 26.7441 1.74704 26.8189 1.74483C27.128 1.73734 27.4062 1.71152 27.6505 1.71347C27.6731 1.71365 27.6972 1.71413 27.7227 1.71486C28.1066 1.72324 28.7744 1.80337 29.0144 1.71317C28.758 1.6955 28.501 1.68177 28.2427 1.672C29.6456 1.66324 30.7217 1.91176 32.097 2.03468C32.4322 1.95274 31.2972 1.77757 32.2644 1.88412C32.0905 1.85486 31.9162 1.82739 31.7412 1.80172C31.6957 1.82357 31.6503 1.84551 31.605 1.86755C31.3089 1.80138 31.0131 1.74092 30.7135 1.68569C30.7966 1.72087 30.8793 1.75651 30.9616 1.79259C29.8929 1.67224 28.814 1.65259 28.4441 1.51136C28.4211 1.54322 28.3981 1.57509 28.3752 1.60699C28.1729 1.59427 27.9488 1.59105 27.7227 1.59417C26.8387 1.60315 25.9484 1.72842 26.1598 1.57188C26.1132 1.58435 26.0666 1.59693 26.02 1.60963C25.4162 1.61951 25.6789 1.67366 25.4549 1.70133C25.3929 1.70278 24.2233 1.80591 24.7331 1.69137C23.5937 1.80338 23.9694 1.92509 23.6597 1.97915C22.9239 2.01081 21.671 2.43327 22.181 2.18483C22.0739 2.2047 21.9669 2.22527 21.8601 2.24654C21.5378 2.42697 21.169 2.40953 20.7855 2.48325C20.6585 2.51809 20.532 2.55392 20.4059 2.59072C20.3316 2.64813 20.2572 2.70598 20.1833 2.7641C18.9593 3.00971 19.4797 3.28748 18.8256 3.15109C18.9003 3.09953 18.9755 3.04827 19.051 2.99732C19.2439 2.91436 19.437 2.83408 19.6321 2.75586C18.8305 3.02321 18.0407 3.3324 17.2687 3.68127C16.2548 4.05365 15.7586 4.43256 14.699 4.9851C14.6082 5.05156 14.5179 5.11857 14.4281 5.18609C14.484 5.06063 14.8577 4.83502 14.1548 5.24221C14.0666 5.23377 14.5258 4.92977 14.7619 4.8374C14.8183 4.81494 14.4033 5.11703 14.8952 4.81947C15.2333 4.62251 14.5818 4.91806 15.6141 4.35677C15.5695 4.36613 15.525 4.37563 15.4805 4.38527C15.5918 4.32297 15.7038 4.26145 15.8157 4.20103C15.93 4.17448 16.0443 4.14885 16.1587 4.12414C16.3952 3.95073 16.5118 3.81315 17.1184 3.53969C16.9639 3.63511 17.2108 3.58604 17.5099 3.45002C17.5006 3.42904 17.4912 3.40807 17.4819 3.38709C18.2076 3.05065 17.9787 3.22354 18.5738 2.92481C18.6423 2.91754 18.7107 2.91059 18.7791 2.90395C19.0847 2.69329 20.3344 2.21965 20.1391 2.40879C20.4589 2.1848 21.232 2.01542 21.536 2.03394C21.5518 2.0055 21.5677 1.97706 21.5836 1.94863C21.7326 1.90556 21.8821 1.8638 22.0323 1.82336C22.1199 1.81737 22.2076 1.81186 22.2952 1.80684C22.3996 1.76863 22.5044 1.73102 22.6097 1.69404C22.6795 1.70365 22.7489 1.71367 22.8183 1.72396C22.9854 1.66084 23.1536 1.59924 23.323 1.53921C23.4331 1.53868 23.5431 1.53891 23.6531 1.5399C23.6569 1.48364 24.7144 1.31374 25.0192 1.31978C25.107 1.29509 25.1941 1.27091 25.2813 1.24716C25.3269 1.26683 25.3725 1.28664 25.418 1.30659C25.4821 1.28095 25.5465 1.25551 25.6111 1.23029C25.7653 1.23608 25.9195 1.24332 26.0738 1.252C26.6934 1.09138 26.7159 1.20124 26.8584 1.19353C27.0163 1.18602 27.4029 1.14694 27.7227 1.12449C27.9358 1.10905 28.1172 1.09965 28.1777 1.1019C28.3287 1.10763 28.4003 1.15268 28.5214 1.15972C30.5172 1.31428 29.7027 1.1764 30.1058 1.18036C30.3221 1.18894 30.4725 1.24534 30.6641 1.26153C30.9929 1.27443 32.6435 1.47937 32.7338 1.51526C32.8685 1.54975 32.5092 1.67978 32.9611 1.71828C32.9992 1.61323 33.9176 1.93018 33.511 1.68554C33.8965 1.78593 34.28 1.89563 34.6608 2.01451C34.6523 1.88005 35.1035 2.08668 35.6174 2.24366C36.3489 2.4474 37.9738 3.00952 37.8595 3.1171C38.0392 3.16033 38.2187 3.20547 38.3979 3.25251C39.5171 3.80547 40.6147 4.35174 41.6619 5.02039C44.7784 6.98872 47.6333 9.92315 49.5373 13.0615C49.6295 13.2121 49.5745 13.2158 49.6397 13.3243C49.993 13.8875 50.8461 15.3999 51.2008 16.2662C51.319 16.5422 51.3296 16.6947 51.3642 16.7828C51.4797 17.0825 51.5096 16.9891 51.5635 17.1274C51.6553 17.3446 52.0223 18.5258 52.1359 18.9371C52.1961 19.1382 52.3177 19.3625 52.37 19.6048C52.3746 19.6256 52.3126 19.6021 52.3166 19.6196C52.4315 20.0546 52.4031 19.7821 52.4412 19.9297C52.7079 20.9798 52.9406 22.1222 53.0808 23.2888C53.1167 23.5795 53.1268 24.0287 53.1449 24.2771C53.1519 24.3723 53.1791 24.1979 53.2034 24.5276C53.2113 24.6407 53.1603 24.6831 53.1658 24.8108C53.1873 25.3625 53.369 25.5366 53.2413 26.0147C53.2459 26.152 53.2505 26.3049 53.2542 26.4688C53.2813 27.3931 53.2397 28.6476 53.16 29.3538C53.1391 29.5509 53.0953 29.6426 53.0727 29.8292C53.0567 29.9616 53.0764 30.201 53.0463 30.4075C53.0162 30.6151 52.9172 30.9332 52.8457 31.3266C52.7721 31.7398 52.6861 32.2625 52.6641 32.3545C52.6384 32.4667 52.5656 32.5042 52.5397 32.6157C52.4648 32.9533 52.279 33.8693 52.1466 34.2987C52.0083 34.7618 51.8824 35.0239 51.8285 35.1791C51.7787 35.3223 51.7669 35.5091 51.743 35.5747C51.7057 35.6769 51.6384 35.6785 51.5896 35.8072C51.5096 36.0173 51.4614 36.2473 51.3315 36.5594C48.9959 42.1871 44.6104 46.7797 39.3103 49.4296C38.7174 49.7226 38.4042 49.9341 37.4969 50.2947C37.1283 50.437 37.2559 50.3072 36.9756 50.4333C36.8502 50.4889 36.9028 50.5294 36.7415 50.5941C36.0303 50.8813 35.1597 51.0996 34.8425 51.1913C34.7164 51.2284 34.5893 51.3333 34.3276 51.4054C32.383 51.9493 30.0039 52.2755 27.8302 52.2994C27.7949 52.3 27.7591 52.3005 27.7227 52.3009C26.5717 52.3242 24.8919 52.2466 23.6228 52.0481C19.9911 51.5329 16.2596 50.0194 13.4639 48.1831C9.22174 45.4498 5.7466 41.4832 3.78513 36.805C4.54519 39.0624 6.30627 41.8418 8.08052 43.8068C12.7978 49.2547 20.3669 52.6121 27.7227 52.4737C28.1992 52.47 28.6703 52.4539 29.14 52.4256C31.8458 52.2884 35.2126 51.5272 37.9327 50.3503C38.0569 50.298 38.2916 50.1402 38.5557 50.0219C38.6123 49.9996 39.3385 49.7452 39.5668 49.6232C39.2795 49.597 40.2344 49.2519 40.5019 49.0866C40.8414 48.886 41.505 48.401 42.2839 47.9152C42.9897 47.4692 42.8337 47.6454 42.8742 47.6231C43.1274 47.4677 43.1526 47.3281 43.3265 47.1834C44.109 46.6769 47.5478 43.3921 48.2609 42.2554C48.4677 41.9828 48.5192 42.0089 48.5653 41.947C48.6866 41.7821 48.8095 41.512 48.9945 41.2425C49.33 40.7576 49.7354 40.2107 49.9018 39.9302C50.3087 39.2672 50.9432 37.9312 51.3372 37.006C51.45 36.746 51.4967 36.7851 51.5467 36.6664C51.7746 36.1474 52.2143 34.7405 52.4041 34.0663C52.7296 32.979 53.0277 31.8414 53.1882 30.6975C53.2248 30.6292 53.2611 30.5605 53.2972 30.4915C53.2879 30.3719 53.2774 30.2549 53.2664 30.1368C53.4427 28.9273 53.5029 27.6966 53.4804 26.4688C53.4668 25.7291 53.4238 25.0011 53.3589 24.2762C53.3457 24.0563 53.2576 22.9502 53.2241 22.77C53.2011 22.6189 53.1181 22.479 53.0884 22.2533C53.0449 21.9378 53.2131 22.2128 53.084 21.7066C53.0482 21.571 53.027 21.7126 52.9563 21.4411C52.9478 21.3472 52.4987 19.606 52.4599 19.5158C52.4209 19.3597 52.4787 19.1931 52.4687 19.1524C52.4165 18.9418 52.343 18.9738 52.2925 18.838C52.1434 18.4351 52.0055 17.8918 51.9797 17.827C51.6869 17.0347 51.0015 15.6214 50.6185 14.8277C50.5669 14.7173 50.6245 14.704 50.6162 14.6841C50.5623 14.5561 50.4639 14.5106 50.4001 14.396C50.0608 13.7759 49.5227 12.8069 49.1281 12.2141C49.0832 12.1456 48.9598 12.0202 48.8783 11.8989C48.4135 11.2156 48.6054 11.4072 48.5808 11.3671C48.5187 11.2742 48.3587 11.1488 48.1748 10.9163C47.7081 10.3117 46.7545 9.20128 46.1772 8.62147C45.7487 8.18409 45.7935 8.15136 45.7664 8.12158C45.7058 8.06029 45.501 7.92781 45.2002 7.6593C44.6175 7.14681 44.7107 7.17502 44.4672 6.96815C44.4465 6.95114 44.4531 7.01473 44.1779 6.79264C43.6528 6.35643 42.4424 5.4103 41.8196 5.02385C41.5826 4.87215 41.5036 4.87354 41.2584 4.72322C40.8723 4.48062 39.9951 3.94083 39.9206 3.90617C39.9005 3.89553 39.8322 3.91479 39.7139 3.85295C39.5837 3.78497 39.4665 3.69686 39.3683 3.6478C38.8104 3.36125 37.7906 3.01242 38.1345 2.97323C37.9329 2.93247 37.7303 2.89366 37.5296 2.85803C36.3224 2.35773 35.1067 1.98638 33.8479 1.69372C33.5656 1.62829 33.3356 1.54518 33.0943 1.49685C32.8529 1.44219 31.7812 1.30905 31.6 1.28954C31.2853 1.22739 29.464 1.05907 29.235 1.06035C28.7913 1.02985 28.3652 0.955369 28.1825 0.966872C28.037 0.976268 28.1709 1.01417 27.8935 1.02418C27.8403 1.02624 27.7829 1.02765 27.7227 1.02862C27.2397 1.03415 26.5842 1.02655 26.4553 1.03584C26.3935 1.04072 26.5106 1.05824 25.9271 1.1023C25.6132 1.12783 25.4429 1.1134 25.3294 1.12476C25.2937 1.12982 25.3534 1.16944 24.7322 1.23662C24.3047 1.2855 24.119 1.27634 24.0742 1.28244C24.0072 1.29244 23.8525 1.35763 23.5832 1.40203C22.9549 1.49911 21.8088 1.70502 21.2261 1.86597C21.1131 1.89673 21.163 1.93099 20.7148 2.05629C20.395 2.1479 20.4398 2.09476 20.3202 2.12989C20.1317 2.18642 19.8629 2.32127 19.4516 2.46421C18.8997 2.56223 15.1971 4.27449 15.0443 4.44199C14.9176 4.50664 14.7762 4.59105 14.7058 4.61028C14.7474 4.56234 14.7893 4.51449 14.8314 4.46672C15.405 4.20726 15.1492 4.26942 15.2909 4.18136C15.4956 4.05126 16.3012 3.63269 16.493 3.52194C16.5607 3.48153 16.3804 3.5224 16.7502 3.31695C17.1485 3.0985 17.3639 3.08615 17.4876 2.9174C18.1213 2.76093 18.6505 2.42098 17.9474 2.67454C17.521 2.74629 13.8823 4.64782 13.2392 5.20036C12.6753 5.57973 11.6859 6.37757 11.0578 6.92393C10.6798 7.23569 9.80754 8.06745 9.81157 7.99879C9.49903 8.30158 9.86023 8.01233 9.80053 8.08198C9.66921 8.22023 8.71493 9.18316 8.55421 9.38415C7.72 10.3391 6.81465 11.6531 6.11817 12.6632C6.13761 12.6077 6.15723 12.5524 6.17705 12.497C6.29756 12.2459 7.05324 11.2086 7.09467 11.0587C5.98513 12.5758 5.04303 14.213 4.29168 15.9319C4.32962 15.913 3.49049 18.077 3.46004 18.1822C3.44994 18.1357 3.43993 18.0891 3.43003 18.0424C3.94789 16.8322 3.80478 16.903 4.2022 16.1106C4.34562 15.7808 4.2658 15.8638 4.33058 15.6983C5.01047 14.0638 4.40483 15.7029 4.9706 14.4756C4.73123 14.81 5.21637 13.812 5.4637 13.3793C5.50911 13.2751 6.30435 12.0168 6.41119 11.8757C6.94782 11.0411 7.97133 9.66765 8.66677 8.96365C9.19174 8.38964 9.45898 8.05069 9.96034 7.54931C10.3442 7.17215 10.2554 7.30341 10.4412 7.13182C10.8337 6.77579 10.9039 6.58522 11.2519 6.4723C11.5154 6.22707 11.7843 5.9868 12.0585 5.75169C12.0717 5.76914 12.0849 5.78658 12.0981 5.80403C12.2767 5.66551 12.4567 5.52968 12.6387 5.39592C12.6795 5.33876 12.7206 5.28167 12.7619 5.22465C13.3642 4.83158 13.1508 5.05173 13.2953 5.0263C13.4247 4.94222 13.5549 4.8593 13.6858 4.77754C13.7591 4.67092 13.8334 4.56448 13.9086 4.45824C14.4934 4.08532 15.0936 3.73572 15.7062 3.41112C15.7561 3.40991 15.8061 3.40887 15.856 3.408C15.8469 3.38723 15.8378 3.36646 15.8288 3.34568C16.8655 2.79054 17.9395 2.30603 19.0445 1.89581C19.3235 1.7415 17.5524 2.40535 17.4277 2.47806C16.6813 2.76796 14.8449 3.8123 14.8107 3.75888C14.4068 4.05166 13.1558 4.85008 12.7451 5.07386C13.3187 4.66555 13.9087 4.28049 14.5133 3.91999C14.4803 3.90872 14.4473 3.89753 14.4142 3.8864C15.224 3.52785 15.3283 3.46312 16.0848 2.95109C16.1017 2.98328 16.1186 3.01546 16.1355 3.04765C16.6387 2.63946 17.7464 2.38441 17.7146 2.23047C18.028 2.10999 18.3441 1.9955 18.6629 1.88713C19.3422 1.63428 18.2115 1.82087 20.9541 1.0291C21.1449 0.979798 21.1157 1.02995 21.3997 0.952042C21.4811 0.932019 21.9396 0.739128 22.8562 0.559127C22.9994 0.531593 23.0167 0.565335 23.1661 0.541686C23.5114 0.48523 24.1876 0.306472 23.8932 0.472723C25.2612 0.306667 24.6874 0.298387 25.1089 0.205207C25.3903 0.148382 25.3395 0.22498 25.5844 0.185154C25.8873 0.142103 25.6607 0.0697604 26.8884 0.0358384C26.7509 0.0469253 26.6136 0.0590503 26.4767 0.0722038C26.5466 0.0875599 26.6164 0.103217 26.6861 0.119175C27.3836 0.039481 27.3194 0.115821 27.6507 -0.00258756C27.6748 -0.00066638 27.6988 0.00119042 27.7227 0.0029844C28.207 0.0404561 28.6356 0.0453169 29.3016 0.0655082C30.6574 0.131665 29.9805 -0.0553796 31.5015 0.281514C31.7522 0.290562 32.0069 0.30368 32.2597 0.320084C32.6597 0.435516 32.32 0.437923 32.9223 0.558762C32.4717 0.349885 33.7428 0.635749 33.9822 0.586896C33.9987 0.617287 34.0151 0.647704 34.0315 0.678143C34.1661 0.709007 34.2994 0.740664 34.4342 0.773801C34.4399 0.753651 34.4456 0.7335 34.4513 0.713349C34.627 0.772631 34.8017 0.833718 34.9754 0.896577C35.1149 0.912429 35.2543 0.929333 35.3937 0.947296C35.5998 1.05176 35.8057 1.15944 36.0089 1.2696C36.1443 1.31525 36.2791 1.36196 36.4135 1.40972C36.381 1.36565 36.3483 1.32166 36.3154 1.27776C36.487 1.3447 36.6576 1.41337 36.8271 1.48376C36.6428 1.36614 36.791 1.34713 37.3318 1.54649C37.7749 1.71638 37.2391 1.61917 38.2005 1.95528C38.2662 1.98209 38.4197 1.94539 39.3033 2.33471C40.3575 2.81941 39.821 2.63141 40.0062 2.72249C40.0424 2.74081 40.3762 2.86371 40.6719 3.01576C40.8398 3.10162 40.9824 3.2175 41.0041 3.22946C41.1063 3.2845 41.1589 3.26118 41.2998 3.33916C41.6573 3.53675 42.1165 3.84013 42.4545 4.05406C42.6085 4.15101 42.767 4.2221 42.8352 4.2668C42.9409 4.33612 43.0498 4.45993 43.155 4.5317C43.544 4.79355 44.2074 5.10751 44.2595 5.39576C44.7351 5.52523 45.3269 6.30014 45.3507 6.16448C46.2832 6.93403 48.6082 9.20655 48.359 9.29275C48.9418 9.7017 48.7987 9.7411 48.9817 9.96213C49.1844 10.2122 49.1088 10.0601 49.2653 10.2629C49.6288 10.7374 49.9525 11.2098 50.2854 11.7028C50.2085 11.6415 50.1315 11.5807 50.0542 11.5204C50.3968 12.0402 50.3356 11.8239 50.6927 12.353C51.3327 13.3366 51.0204 12.9473 51.0442 13.1328C51.0919 13.0514 51.7591 14.2625 51.8068 14.3964C51.8385 14.4742 51.5889 14.1888 51.996 14.9297C52.0028 14.8754 52.0093 14.8211 52.0156 14.7666C52.1558 15.1253 52.6383 16.0607 52.6941 16.2297C52.7229 16.3078 52.6633 16.7969 52.9884 17.1016C52.9772 17.1572 52.966 17.213 52.9543 17.2682C53.1455 17.6682 53.3279 18.0754 53.5007 18.4881C53.4697 18.5718 53.4382 18.6552 53.4063 18.7383C53.4483 18.8718 53.4894 19.0058 53.5294 19.1403C53.5503 19.0376 53.5705 18.9347 53.59 18.8315C53.8312 19.6677 54.1537 20.6867 54.0262 20.8979C54.0977 21.0741 54.1669 21.2483 54.2348 21.4253C54.2039 21.5546 54.1719 21.6834 54.139 21.8118C54.3067 22.6572 54.3396 22.6626 54.4818 23.24C54.4349 23.2223 54.3879 23.2048 54.341 23.1874C54.4626 23.6109 54.6066 24.3897 54.6541 25.0198C54.6789 25.317 54.6387 25.8289 54.6457 25.8992C54.6511 25.9435 54.7578 26.2359 54.7801 26.4688C54.7934 26.6056 54.7781 26.7202 54.7 26.7476C54.7931 27.7814 54.6629 28.2324 54.6401 28.6495C54.623 28.9209 54.6648 29.0475 54.6423 29.3558C54.6096 29.7977 54.5307 30.2346 54.4999 30.4862C54.4825 30.63 54.5283 30.6656 54.5155 30.7656C54.452 31.2385 54.4449 30.9544 54.366 31.4491C54.3587 31.4951 54.3583 31.8656 54.2672 32.2719C54.2186 32.4993 54.0183 33.0656 54.0051 33.1158C53.9501 33.3413 54.1374 33.2007 53.7763 33.9307C53.8081 33.9157 53.8399 33.9006 53.8717 33.8854C53.6748 34.8601 53.4987 34.972 53.4327 35.1594C53.4244 35.1835 53.3935 35.4279 53.3407 35.5623C53.2518 35.7892 53.1584 35.8595 53.1377 35.9094C53.0661 36.0855 52.8687 36.6961 52.6515 37.0571C52.8608 37.048 52.3339 38.4324 51.9943 38.6272C51.9177 38.8793 51.8375 39.1306 51.7536 39.3812C51.6689 39.4692 51.5833 39.557 51.4974 39.6437C51.4936 39.7234 51.4895 39.8033 51.4851 39.8832C51.2362 40.1795 50.9824 40.4676 50.722 40.7505C50.7746 40.8115 50.827 40.8727 50.8793 40.934C50.8167 41.0204 50.7536 41.1064 50.69 41.192C50.5948 41.2295 50.4995 41.2664 50.4042 41.3025C50.343 41.4202 50.281 41.5375 50.218 41.6545C50.2366 41.7067 50.2551 41.7589 50.2735 41.8113C49.9115 42.4341 49.7947 41.8889 49.2862 43.2063C49.1306 43.3538 48.9735 43.4991 48.8149 43.6422C48.8001 43.9382 48.4357 44.2206 48.2147 44.5069C48.0584 44.709 48.1193 44.7449 47.8886 45.0066C47.6564 45.2672 47.6157 45.2115 47.5973 45.2315C47.4024 45.4374 47.2964 45.6332 47.1431 45.7751C47.1199 45.7964 47.0103 45.7982 46.8202 45.9825C46.6295 46.1663 46.5741 46.34 46.2762 46.6015C46.1233 46.735 46.0356 46.7254 45.8997 46.8424C45.2551 47.3954 44.7934 48.2169 44.0389 48.286C43.9597 48.417 43.2171 49.1899 42.8326 49.4314C42.2398 49.8088 42.421 49.5891 42.1797 49.7288C42.1444 49.7476 41.9813 49.8901 41.4751 50.1892C41.3843 50.2424 41.4279 50.2693 41.4152 50.2775C40.8271 50.6349 39.6309 51.2294 38.9412 51.5337C38.8808 51.5602 38.6084 51.8325 37.9921 51.9036C37.2196 52.3781 35.5625 52.6718 34.4795 53.1514C34.3239 53.1974 34.1219 53.2003 34.0526 53.2191C33.4552 53.3741 33.7028 53.4873 32.2925 53.5447C32.417 53.596 32.1025 53.724 31.6451 53.79C30.9549 53.8844 31.4271 53.6776 30.8746 53.7632C30.879 53.8018 30.8834 53.8405 30.8878 53.8791C29.5997 53.9246 29.3557 54.1104 28.0592 54.1583C27.9553 54.161 27.8401 54.1591 27.7227 54.154C27.3115 54.1369 26.8785 54.0767 26.7926 54.0745C26.7496 54.075 26.2395 54.1552 26.1884 54.1527C25.9124 54.1439 25.7603 54.0912 25.5239 54.0758C24.7474 54.0284 23.7942 54.035 23.9947 53.8296C23.7748 53.8513 23.5568 53.8709 23.3336 53.8873C22.5667 53.5288 21.9093 53.7371 21.7889 53.4695C21.6356 53.4884 21.482 53.5061 21.328 53.5226C17.9073 52.7421 14.6363 51.2962 11.7497 49.296C11.5821 49.2921 10.3578 48.3628 10.3102 48.2967C10.0623 48.0289 10.4693 48.1311 9.87416 47.7014C9.7616 47.7093 9.64869 47.7165 9.53545 47.723C8.81 47.1419 9.20264 47.3717 8.96243 47.0926C8.84194 46.9982 8.83772 47.0758 8.68092 46.9402C7.81627 46.22 6.22619 44.5389 5.47498 43.5593C5.32017 43.3645 5.38971 43.3589 5.34245 43.298C5.21228 43.1311 4.90038 42.8409 4.6519 42.4932C3.07846 40.3714 1.42759 36.9586 0.749121 34.3809C0.700484 34.2069 0.762928 34.1658 0.731869 34.0483C0.688293 33.886 0.530148 33.5361 0.49108 33.3635C0.453549 33.2008 0.47964 33.0844 0.442609 32.9098C0.271496 32.1117 -0.0354974 31.0434 0.00330257 30.1586C0.00216651 30.0836 0.179777 29.1454 0.200886 29.1274C0.304533 29.0004 0.554744 29.7664 0.599788 28.4627C0.859366 29.6022 1.05056 29.2095 1.08068 27.7305C1.15388 28.4705 1.25662 29.1996 1.38977 29.9281C1.42002 29.9253 1.45027 29.9224 1.48052 29.9195C1.54031 29.236 1.51599 28.5811 1.47891 27.5715C1.50876 27.6016 1.53864 27.6316 1.56857 27.6615C1.75178 28.5428 1.89633 29.6001 2.18876 30.2313C2.1826 29.2449 2.23522 28.262 2.34429 27.2976C2.36838 27.3448 2.39258 27.3919 2.41689 27.4388C2.48842 27.8948 2.60232 28.8929 2.70346 29.2637C3.0749 30.6766 2.72082 27.9912 2.90295 28.4236C3.01806 29.9341 3.27099 31.4344 3.65956 32.8992C3.60114 32.9442 3.01277 27.1763 3.45355 27.2364C3.48623 27.6975 3.53222 28.1635 3.59091 28.6221C3.64361 28.4106 3.69921 28.2001 3.75767 27.9907C3.78352 28.0458 3.80954 28.1006 3.83573 28.1553C3.94243 28.9213 4.08546 29.6818 4.26391 30.4303C3.8495 28.1279 3.94352 27.0162 4.49504 26.4688C4.50902 26.531 4.52324 26.593 4.53769 26.6549C4.16162 27.1513 4.41477 29.5171 4.73519 30.7229C4.7832 30.456 4.55128 29.3859 4.59359 29.1466C4.6039 29.0796 4.69913 29.2981 4.71852 29.1435C4.75108 28.7386 4.79195 27.0662 4.92482 27.3061C4.96835 27.4641 5.30202 30.0922 5.42638 30.5959C5.34711 29.3822 5.27266 28.1398 5.4235 26.9395C5.66594 27.6887 5.95303 28.3249 6.13436 29.6558C6.27117 30.0434 6.18536 27.2095 6.29521 27.1492C6.37312 27.6292 6.46711 28.1125 6.57578 28.5816C6.5239 28.1808 6.4829 27.772 6.45365 27.3668C6.47694 27.3646 6.50022 27.3625 6.52351 27.3603C6.66266 28.4123 6.94163 29.3324 7.13197 30.5047C7.24247 30.4447 7.11659 29.7475 7.07969 29.4078ZM8.18136 9.32452C8.1269 9.31645 8.48571 8.91179 8.69273 8.68828C8.65576 8.71638 8.61886 8.74459 8.58203 8.77293C9.01787 8.28921 9.89107 7.45106 9.86502 7.35626C10.1945 7.02655 10.0994 7.2276 10.2147 7.13167C10.2591 7.09428 10.6751 6.64758 11.0824 6.37772C11.17 6.3028 11.258 6.22856 11.3466 6.15483C11.3447 6.11699 11.3429 6.07911 11.3411 6.04119C11.4885 5.96726 11.6365 5.89497 11.7849 5.82434C10.4739 6.87349 9.26629 8.04694 8.18298 9.32263C8.18244 9.32326 8.1819 9.32389 8.18136 9.32452ZM22.2792 0.781707C22.8821 0.660462 23.8176 0.532708 23.6157 0.474053C23.2308 0.54459 22.849 0.623435 22.4706 0.710369C22.4072 0.733814 22.3428 0.75771 22.2792 0.781707ZM50.6545 40.6217C50.27 41.0033 50.11 41.4751 49.6244 42.1327C49.6477 42.1481 49.671 42.1635 49.6943 42.1788C49.8334 41.8673 50.3588 41.1581 50.6545 40.6217ZM2.42401 22.9467C2.40478 23.0551 2.38625 23.1637 2.36843 23.2726C2.34422 22.8165 2.40766 22.7468 2.47632 22.2413C2.48056 22.2108 2.46121 22.2184 2.46275 22.2078C2.48079 22.0844 2.52077 21.9746 2.53931 21.8639C2.57562 21.65 2.58347 21.4741 2.65994 21.0959C2.72016 20.8043 2.756 20.8097 2.77707 20.7075C2.79277 20.6211 2.89727 19.7367 3.0966 19.2013C3.4152 18.1749 2.36989 22.6045 2.42401 22.9467ZM2.15622 26.1207C2.15617 26.014 2.15676 25.9075 2.158 25.8011C2.20552 26.1216 2.20183 25.4779 2.22443 25.0053C2.2694 25.0253 2.21606 26.0173 2.24104 26.4688C2.2121 26.3529 2.18382 26.2369 2.15622 26.1207ZM5.7634 13.3061C5.55854 13.6688 5.53515 13.5752 5.52554 13.5493C5.59138 13.4336 5.6581 13.3184 5.72569 13.2038C5.73821 13.2379 5.75078 13.272 5.7634 13.3061ZM4.3673 16.1091C4.37372 15.9705 4.72919 15.137 4.92316 14.7527C4.93176 14.736 4.90062 14.8525 5.03611 14.581C5.0729 14.4987 5.41894 13.6623 5.41777 13.8886C5.03211 14.6121 4.68152 15.3532 4.36779 16.108C4.36762 16.1083 4.36746 16.1087 4.3673 16.1091ZM3.9953 16.9428C4.04402 16.7788 4.09418 16.6156 4.14621 16.4521C4.19966 16.3788 4.25349 16.306 4.30768 16.2335C4.23658 16.4142 4.16759 16.5956 4.10091 16.777C4.0655 16.8321 4.0303 16.8873 3.9953 16.9428ZM10.8728 47.1944C10.8734 47.2593 10.8742 47.3242 10.8753 47.3891C10.9819 47.5165 11.7391 47.8145 11.5672 47.6317C11.3338 47.4896 11.1024 47.3438 10.8728 47.1944ZM8.50897 44.9118C8.41456 44.7784 8.32154 44.6442 8.22992 44.5093C8.03924 44.4332 7.84863 44.3545 7.65809 44.2734C8.15758 44.9174 8.73438 45.5713 8.81407 45.2933C8.94587 45.4233 9.079 45.552 9.21344 45.6793C9.02806 45.647 9.0156 45.6878 9.32794 46.0681C9.50614 46.034 9.82556 46.4292 10.2873 46.776C9.9729 46.4997 9.66513 46.2162 9.36412 45.9256C9.38178 45.9069 9.39944 45.8882 9.41709 45.8695C10.0975 46.5015 9.35026 45.613 8.8529 45.2582C8.84334 45.2005 8.83403 45.1428 8.82494 45.0851C8.71944 45.0282 8.61412 44.9704 8.50897 44.9118ZM53.5493 22.7327C53.5475 22.8466 53.5449 22.9605 53.5416 23.0744C53.8448 23.4745 53.5005 22.6288 53.574 21.9689C53.4684 22.1992 53.2925 21.25 53.267 21.1996C53.2417 21.318 53.2155 21.4357 53.1885 21.5532C53.3172 21.9408 53.4381 22.3376 53.5493 22.7327ZM53.6647 25.9183C53.7151 25.7418 53.7602 26.0324 53.7805 26.4688C53.8072 27.0016 53.7811 27.7336 53.745 28.0886C53.7303 28.2453 53.6426 28.5183 53.6427 28.6309C53.6634 28.7011 53.6839 28.7715 53.7041 28.8419C53.615 28.9126 53.5859 30.1753 53.5499 30.6743C53.5104 30.7155 53.4707 30.7564 53.431 30.7972C53.4155 30.978 53.3983 31.1586 53.3792 31.3388C53.3509 31.3104 53.3226 31.282 53.2943 31.2537C53.3093 31.3951 53.3233 31.5367 53.3362 31.6787C53.2742 32.2163 53.1644 31.8533 53.1354 32.2599C53.0996 32.7122 53.3623 32.0172 53.4259 32.0435C53.4861 31.6787 53.5896 30.8552 53.6377 30.4847C53.6642 30.2739 53.7639 30.5313 53.7304 29.6008C53.7851 29.405 53.8378 29.2053 53.8877 29.0092C53.8673 28.6365 53.8395 28.2641 53.8041 27.8921C53.8524 27.8254 53.9003 27.7595 53.9479 27.6929C53.9597 27.654 53.8731 26.7982 53.8363 26.8436C53.8612 26.7459 53.88 26.6186 53.893 26.4688C53.926 26.0901 53.9202 25.5739 53.8892 25.0408C53.8605 24.9699 53.8315 24.8993 53.8022 24.829C53.9011 25.5482 53.7916 25.06 53.7581 25.2763C53.7388 25.4006 53.702 25.7793 53.6647 25.9183ZM15.2263 49.8836C14.0743 49.4208 14.7928 49.6959 13.6484 49.0164C13.6875 49.1293 13.7276 49.2422 13.7687 49.355C14.4027 49.5807 15.3162 50.163 15.2274 49.8842C15.2271 49.884 15.2267 49.8838 15.2263 49.8836ZM5.36225 41.4473C5.81035 42.0052 5.7011 41.6472 6.26691 42.3449C6.26717 42.3452 6.26743 42.3456 6.26768 42.3459C5.99555 41.9707 5.73266 41.5875 5.48053 41.1987C5.44074 41.2813 5.40131 41.3642 5.36225 41.4473ZM41.9889 48.7281C42.5647 48.3797 42.4253 48.412 42.9827 48.1425C43.6441 47.5044 43.0335 47.9748 42.9684 47.8818C42.8206 48.03 42.6707 48.1769 42.5188 48.3224C42.0459 48.5179 42.4088 48.2053 42.4025 48.1969C42.4021 48.1971 42.4018 48.1974 42.4014 48.1976C42.3824 48.1693 42.3918 48.1548 42.2226 48.2452C42.1467 48.4062 42.0688 48.5672 41.9889 48.7281ZM44.2169 46.9171C44.086 47.1192 44.0661 47.2637 44.5628 46.9123C44.5632 46.912 44.5635 46.9117 44.5638 46.9114C44.4962 46.7531 45.0224 46.4787 45.2113 46.291C45.2511 46.2311 45.2905 46.1711 45.3297 46.111C44.9655 46.3899 44.594 46.659 44.2169 46.9171ZM50.4691 39.1507C50.623 39.2323 50.3941 39.6873 50.8762 39.138C50.9392 39.0139 51.0007 38.8901 51.0616 38.7654C51.0695 38.6667 51.0769 38.5681 51.0837 38.4697C52.1146 37.0173 51.8935 36.3405 50.749 39.0683C50.7489 39.0687 50.7488 39.0692 50.7487 39.0696C50.6556 39.0973 50.5624 39.1243 50.4691 39.1507ZM48.8563 41.75C48.9189 41.8226 48.9813 41.8954 49.0437 41.9684C48.6374 42.1488 48.5136 42.6843 47.9121 43.1727C47.8908 43.244 47.8693 43.3153 47.8474 43.3867C47.6471 43.5915 45.7213 45.5944 46.2345 45.2585C46.4677 45.1176 46.8028 44.6388 46.8367 44.6035C46.9561 44.4858 47.1641 44.3798 47.3491 44.1637C47.4562 44.0387 47.6116 43.7155 47.8245 43.4589C48.3038 42.8945 49.3331 41.9447 49.6657 40.9814C49.7275 40.9376 49.789 40.8935 49.8505 40.849C50.2239 40.2209 50.0217 40.3832 50.4552 39.8527C50.3438 39.2421 49.0242 42.168 49.0792 41.4056C49.079 41.406 49.0787 41.4063 49.0785 41.4067C49.0053 41.5217 48.9312 41.6361 48.8563 41.75ZM32.5241 52.4158C32.4667 52.3413 31.6534 52.6194 31.8168 52.3775C31.5565 52.4946 31.2957 52.6077 31.0298 52.7174C31.0343 52.7366 31.0388 52.7558 31.0434 52.7749C31.3154 52.7228 31.5841 52.6669 31.854 52.6066C31.8598 52.637 31.8657 52.6675 31.8716 52.6979C32.2656 52.5352 33.9438 52.2142 33.918 52.3209C33.9965 52.254 34.0744 52.1868 34.1517 52.1194C34.9781 52.0319 35.6158 51.6999 36.4963 51.5125C36.5491 51.4536 36.6014 51.3945 36.6534 51.3352C36.7058 51.3482 36.7582 51.361 36.8107 51.3736C37.1176 51.2624 37.4224 51.1456 37.7241 51.0234C38.6513 50.5007 36.7014 51.1507 36.4707 51.232C36.4405 51.2455 36.4718 51.3183 36.2812 51.399C35.9464 51.5617 33.9582 52.0724 33.3447 52.241C33.3282 52.1906 33.3116 52.1401 33.2951 52.0896C33.0392 52.2023 32.7836 52.3107 32.5241 52.4158ZM52.2425 35.6922C52.3027 35.6655 52.3628 35.6386 52.4228 35.6113C52.6475 34.8442 52.8254 34.3736 52.6185 34.5218C52.6184 34.5222 52.6183 34.5226 52.6181 34.523C52.5019 34.9163 52.3773 35.3043 52.2425 35.6922ZM19.5461 2.10319C19.586 2.15828 19.9458 2.05804 20.3903 1.87257C20.3628 1.86119 20.3352 1.84986 20.3076 1.83858C20.0863 1.96731 19.7536 1.96445 19.03 2.24316C19.041 2.27376 19.0519 2.30437 19.0629 2.33497C19.2228 2.25624 19.3839 2.17897 19.5461 2.10319ZM51.979 36.3256C51.8407 36.5283 51.7306 37.2237 51.9129 36.813C52.0512 36.4978 52.0543 36.2159 51.979 36.3256ZM4.00476 38.9945C4.08063 39.1622 4.15835 39.3293 4.23805 39.4959C4.33166 39.5537 4.42537 39.6107 4.51917 39.667C4.51896 39.6667 4.51874 39.6663 4.51853 39.6659C4.34425 39.4454 4.17265 39.221 4.00476 38.9945ZM40.0172 49.9109C40.5557 49.6141 41.0849 49.298 41.601 48.9648C41.5911 48.9372 41.5812 48.9096 41.5713 48.882C41.1054 49.2981 40.8316 49.3221 40.7053 49.3883C40.7059 49.388 40.7064 49.3877 40.707 49.3873C40.2977 49.598 39.9062 49.7918 39.5046 49.9591C39.6752 49.9449 39.8461 49.9289 40.0172 49.9109ZM38.0471 50.6656C38.2204 50.8116 38.3657 50.7881 39.1514 50.2461C39.1071 50.2398 39.0628 50.2334 39.0185 50.2269C38.5876 50.4529 38.3454 50.6108 38.3803 50.4779C38.2698 50.5412 38.1588 50.6037 38.0471 50.6656ZM45.9692 45.3858C45.8484 45.4224 45.2404 46.0793 45.2949 46.0684C45.3211 46.07 46.2143 45.3228 45.9692 45.3858ZM13.645 5.0766C13.8164 4.97205 13.989 4.86955 14.1628 4.76911C13.9449 4.92398 13.7297 5.08195 13.5173 5.24294C13.5596 5.18741 13.6022 5.13196 13.645 5.0766ZM11.9774 6.51551C11.8579 6.59425 12.1486 6.21352 11.4732 6.73581C11.9474 6.33474 12.4371 5.95015 12.9397 5.58412C12.7133 5.76933 12.4908 5.9577 12.2711 6.15003C12.3299 6.14349 12.3888 6.13722 12.4476 6.1312C12.2893 6.25753 12.1325 6.38565 11.9774 6.51551ZM11.4157 6.87737C11.7151 6.71813 10.4037 7.87804 10.29 7.99543C10.2621 8.0187 10.0961 8.09511 10.0415 8.13068C10.2308 7.94497 10.423 7.76215 10.618 7.58235C10.5399 7.62828 10.4619 7.67475 10.3842 7.7217C10.6063 7.50354 10.8322 7.28946 11.0623 7.07924C10.9747 7.18164 10.888 7.28455 10.8022 7.38796C11.004 7.21456 11.2085 7.04434 11.4157 6.87737ZM17.3505 3.09122C17.1465 3.18156 16.944 3.27449 16.7429 3.36998C16.7966 3.37929 16.8502 3.3888 16.9037 3.39852C17.0235 3.34112 17.1438 3.28462 17.2646 3.22903C17.293 3.18309 17.3216 3.13715 17.3505 3.09122ZM13.4298 5.35924C13.6134 5.04911 14.5269 4.83949 13.6051 5.30712C13.5127 5.35505 13.4127 5.38854 13.4298 5.35924ZM9.81019 8.44346C9.40397 9.00912 9.34586 8.73604 9.85162 8.31888C9.87727 8.29828 9.84107 8.40129 9.81019 8.44346ZM6.57567 12.4516C6.54552 12.498 6.42894 12.539 6.20563 13.0275C6.1528 13.0981 6.10032 13.1689 6.0482 13.2401C6.11217 13.0381 7.07093 11.5586 6.99849 11.8055C6.84571 12.027 6.72948 12.2203 6.57567 12.4516ZM7.76516 11.2211C7.9211 11.0116 8.08025 10.8046 8.24255 10.6001C8.17086 10.6527 8.0994 10.7058 8.02819 10.7594C8.1031 10.6544 8.17882 10.55 8.25534 10.4461C8.42478 10.3001 8.59601 10.1568 8.76886 10.0164C8.40389 10.4508 8.05406 10.8967 7.71935 11.3541C7.73449 11.3098 7.74976 11.2654 7.76516 11.2211ZM12.695 6.37099C12.2766 6.65069 11.8127 7.05666 11.1988 7.59214C11.1985 7.59235 11.1981 7.59256 11.1978 7.59277C11.1672 7.61945 11.0917 7.64282 10.9936 7.72964C10.8928 7.78688 9.35929 9.36661 9.45141 9.2177C10.0015 8.56222 10.2891 8.3998 10.3518 8.16841C10.3995 8.15804 10.4472 8.14785 10.4949 8.13785C11.1225 7.60803 11.2438 7.39283 11.5748 7.06644C11.5859 7.08263 11.597 7.09883 11.6082 7.11502C11.8451 6.91776 12.0854 6.72501 12.3294 6.53653C12.2872 6.55306 12.2451 6.56974 12.203 6.58655C12.2886 6.51876 12.3747 6.45151 12.4613 6.38481C12.7077 6.26862 12.9848 6.08039 12.695 6.37099ZM7.04841 12.1644C7.00823 12.4298 5.68399 14.3699 5.26693 15.3641C5.43895 14.8204 5.90273 14.0753 6.21951 13.5506C6.83954 12.5372 6.3687 13.211 6.45492 13.027C6.49711 12.9345 6.93698 12.4177 7.04841 12.1644ZM14.1816 5.29636C13.678 5.61029 13.4257 5.82899 12.9786 6.0862C13.0069 6.05187 13.0352 6.0176 13.0636 5.98337C13.2062 5.87858 14.4167 5.10807 14.1816 5.29636ZM4.5899 16.7819C5.08218 15.7492 4.75081 16.2175 5.0794 15.7152C4.91877 16.0711 4.766 16.4318 4.622 16.7954C4.6113 16.7909 4.6006 16.7864 4.5899 16.7819ZM50.643 37.2072C50.4344 37.6464 50.1499 38.1105 50.092 38.4088C50.2588 38.123 50.4202 37.8333 50.5761 37.5399C50.5993 37.4286 50.6214 37.3181 50.643 37.2072ZM52.0224 23.79C52.0156 23.8998 52.1132 24.3142 52.1162 24.3594C52.1232 24.4421 52.0926 24.4219 52.0853 24.4237C52.1321 24.9653 52.1838 24.4577 52.2313 24.8596C52.243 24.9306 52.2439 25.8756 52.2453 26.2632C52.2465 26.3318 52.2473 26.4006 52.2477 26.4688C52.2512 26.9921 52.2271 27.4761 52.2188 27.6709C52.2045 28.0463 52.2245 28.7419 52.1549 29.3576C52.1263 29.6107 52.0603 29.6915 52.0266 29.9436C51.8609 31.5723 51.0456 34.7196 50.3967 36.031C50.2486 36.3599 50.0384 36.6407 49.9639 36.8146C49.9257 36.9617 49.8864 37.1081 49.8452 37.2555C49.4189 37.5588 49.5472 37.7925 49.3309 38.2423C49.192 38.5272 49.0532 38.6181 49.0326 38.6549C48.894 38.8989 48.8535 39.0358 48.7442 39.2276C48.6214 39.4435 48.4018 39.7258 48.3585 39.8031C48.3297 39.8495 48.5195 39.764 47.973 40.5598C47.4097 41.3654 46.8001 42.1231 46.1326 42.8666C46.5831 42.8193 46.6158 42.4604 46.8657 42.1382C46.9328 42.0513 46.9262 42.1358 46.9848 42.0601C47.1515 41.8467 47.4302 41.4084 47.5716 41.2352C47.7246 41.0486 47.7661 41.181 47.9121 40.9076C47.9194 40.8938 47.8537 40.907 47.8893 40.8438C48.243 40.2075 48.4432 40.0593 48.9244 39.2781C49.3072 38.7934 50.8324 35.4392 50.8448 35.3077C51.2712 34.7601 49.7228 38.3483 49.4134 38.7039C49.331 38.8408 49.3701 38.6705 49.29 38.7921C49.2566 38.8436 49.0641 39.3725 48.7752 39.8415C48.4352 40.4134 47.6074 41.463 47.2103 41.9534C43.8531 46.2302 39.0906 49.264 33.8333 50.5927C33.7215 50.6207 33.5897 50.7208 33.221 50.8052C31.4338 51.2115 29.5829 51.4177 27.7227 51.4165C22.4202 51.4365 17.0702 49.6509 12.8194 46.5022C11.5657 45.5805 10.3601 44.5904 9.32855 43.3974C9.15753 43.2892 8.98737 43.1789 8.81795 43.0661C9.17722 43.4178 9.73279 44.161 9.79401 44.2204C9.81524 44.2421 9.9908 44.3368 10.2099 44.5523C10.5188 44.8547 10.6265 45.0181 10.6525 45.0425C10.7338 45.1169 10.7167 45.0287 10.7944 45.0995C11.3751 45.6253 11.8531 45.9994 12.4236 46.4359C13.0699 46.9247 13.3566 47.2389 13.9097 47.4748C13.9424 47.5466 13.9756 47.6183 14.0093 47.69C14.4664 47.8052 16.7401 49.1082 17.7321 49.5019C18.0398 49.6368 17.9577 49.6795 18.062 49.723C18.1299 49.7479 18.1344 49.6606 18.9491 49.9882C19.3606 50.1493 19.4478 50.2495 19.6592 50.3188C19.7743 50.3556 19.7771 50.2853 19.9417 50.3387C20.8943 50.6436 21.6788 50.8705 22.6389 51.0801C22.9077 51.1375 22.9003 51.1918 22.961 51.2028C23.1846 51.2419 23.5921 51.2213 24.1607 51.3013C25.0845 51.448 26.918 51.562 27.7227 51.5861C27.7367 51.5868 27.7504 51.5875 27.7638 51.5882C27.8784 51.5944 27.974 51.6587 28.0584 51.6564C28.1862 51.6526 28.2347 51.5829 28.257 51.5821C28.6817 51.569 28.4282 51.64 28.712 51.614C28.8648 51.5989 29.0201 51.5153 29.376 51.4829C29.8443 51.4377 29.7589 51.5342 29.9541 51.5082C29.9746 51.5048 29.9754 51.4413 30.1665 51.4205C30.8962 51.3446 31.9433 51.1709 32.6197 51.0309C32.8131 50.9918 32.9684 51.0027 33.2395 50.9421C33.7998 50.8734 36.8172 49.8679 37.0507 49.7455C37.0772 49.7372 36.8485 49.9288 37.2656 49.7553C37.3726 49.6702 37.4781 49.5846 37.5836 49.498C37.8083 49.4666 38.0331 49.4319 38.2577 49.3937C38.1688 49.2143 39.3022 48.6185 39.3863 48.8038C39.5154 48.7453 39.6439 48.6859 39.7721 48.6252C39.9599 48.3547 40.1585 48.3081 40.6005 47.9433C40.6987 47.9358 40.7972 47.9274 40.8959 47.9184C40.8994 47.8815 40.9029 47.8446 40.9062 47.8077C41.2492 47.784 41.5784 47.374 41.6265 47.3397C41.8165 47.2078 41.9826 47.1412 42.071 47.0776C42.404 46.8431 43.0732 46.2715 43.4544 45.9901C43.4725 45.977 43.4979 46.0435 43.6077 45.9642C43.8055 45.8202 43.7607 45.7306 44.0825 45.6068C44.1135 45.5419 44.1442 45.4769 44.1745 45.412C44.2367 45.3775 44.2988 45.3427 44.3607 45.3076C44.6628 45.0286 44.9581 44.7422 45.2461 44.4491C45.0557 44.791 45.4118 44.5372 45.635 44.183C45.7102 44.0635 45.5759 44.1029 45.6007 44.0628C45.6463 44.0194 46.9079 42.6782 47.0074 42.6002C47.0469 42.5194 47.086 42.4384 47.1246 42.3574C47.1853 42.3502 47.2461 42.3427 47.3069 42.335C47.3256 42.288 47.3442 42.241 47.3627 42.194C47.729 41.8679 48.3212 40.7539 48.4517 40.5725C48.5242 40.476 48.6157 40.6697 48.917 40.1719C48.8867 40.1283 48.8564 40.0847 48.8259 40.0412C48.8913 39.926 48.9558 39.8103 49.0194 39.6941C49.1543 39.4858 49.41 39.218 49.4656 39.2366C49.475 39.1517 49.4839 39.0669 49.4924 38.9822C49.6989 38.8605 50.1923 37.8557 50.3162 37.4185C50.4034 37.3152 50.4895 37.2116 50.575 37.1067C50.6118 36.9293 50.6468 36.7519 50.6798 36.5745C50.8302 36.1959 50.7217 36.6179 50.7613 36.5406C50.8505 36.3764 51.0916 35.4677 51.1987 35.575C51.2449 35.4556 51.2903 35.3358 51.3347 35.2155C51.3194 35.1395 51.3038 35.0639 51.2878 34.9887C51.491 34.8301 51.5771 34.4568 51.8486 33.7253C51.8367 33.6535 51.8245 33.5819 51.812 33.5104C51.9218 33.2924 52.0287 33.0718 52.1324 32.8486C52.094 32.7872 52.0554 32.7261 52.0166 32.6656C52.0346 32.5628 52.052 32.4599 52.0688 32.3568C52.2324 32.178 52.1911 31.777 52.2765 31.5968C52.4001 31.3329 52.4442 31.5649 52.3461 32.0863C52.4487 32.0682 52.7082 30.509 52.739 30.1459C52.7193 30.1673 52.6997 30.1886 52.68 30.2098C52.6398 30.5791 52.5912 30.9494 52.5349 31.3161C52.2683 31.5797 52.5123 30.605 52.5447 30.1436C52.5475 30.1014 52.5044 29.8562 52.5647 29.3977C52.5908 29.2198 52.7702 28.5363 52.7838 28.4019C52.9012 27.3231 52.6994 28.1114 52.8777 27.0607C52.7888 27.2272 52.8333 26.9127 52.8428 26.4688C52.8457 26.333 52.8452 26.1856 52.8372 26.0374C52.8355 25.9274 52.708 25.0258 52.6979 24.9632C52.6578 24.5813 52.7851 24.9912 52.717 24.4394C52.6862 24.375 52.6552 24.3109 52.624 24.2471C52.6123 24.1189 52.5998 23.9919 52.5861 23.8635C52.7223 23.0574 52.5227 22.8971 52.4613 22.627C52.435 22.5169 52.5164 22.6512 52.4565 22.3643C52.4334 22.2564 52.366 22.144 52.3082 21.855C52.121 20.9549 52.2439 20.5962 51.8161 19.8296C51.8108 19.6959 51.8044 19.5622 51.7969 19.4284C51.7366 19.3542 51.676 19.2806 51.6151 19.2075C51.5158 18.5347 51.4824 18.7989 51.4083 18.5683C51.2174 17.9577 50.7434 16.7354 50.7705 16.5979C50.3704 16.1674 50.2855 15.4823 50.1773 15.288C50.0974 15.1824 50.0169 15.0777 49.9356 14.9738C49.8863 14.8276 49.8356 14.6819 49.7833 14.5366C49.6521 14.6924 49.4311 13.9127 49.3913 13.8463C49.3546 13.7659 48.666 12.7606 48.4041 12.393C48.1525 12.018 47.7219 11.3576 47.6775 11.3033C47.6297 11.2387 47.1175 10.6631 46.7234 10.2099C46.4217 9.77537 44.23 7.55329 44.2975 7.77203C44.4354 7.92324 44.6369 8.13168 44.812 8.31042C45.435 8.7922 48.345 12.3004 48.8536 13.3607C50.0671 15.3464 51.062 17.586 51.6663 19.8436C51.702 19.9766 51.6575 20.0103 51.6868 20.1244C51.7326 20.2981 51.8917 20.7238 51.9296 20.897C52.077 21.542 52.2079 22.3289 52.2591 22.6806C52.3752 23.4571 52.3989 24.0024 52.4403 24.5939C52.456 24.7803 52.5788 25.7164 52.5499 26.3677C52.5458 26.4014 52.5416 26.4351 52.5373 26.4688C52.5267 26.5529 52.5157 26.6368 52.5042 26.7205C52.5012 26.655 52.4972 26.5685 52.4919 26.4688C52.4721 26.0592 52.4219 25.4364 52.3983 25.1132C52.3564 24.5113 52.3665 24.1972 52.3442 23.9768C52.3287 23.7891 52.1639 22.8544 52.0867 22.4282C52.0642 22.2958 52.1136 22.2594 52.0934 22.146C51.9857 21.533 51.8034 20.727 51.6131 20.22C51.6923 20.4273 51.3512 19.091 51.3197 19.0247C51.282 18.9062 51.1933 18.7933 51.1123 18.554C50.9535 18.0955 51.0745 18.1169 50.7603 17.5848C50.7344 17.4335 50.7069 17.2825 50.6779 17.1316C50.562 17.1725 49.9533 15.3541 49.5324 14.9619C49.535 14.9463 50.5339 17.1978 50.5756 17.3976C51.0218 18.5293 51.5728 20.2502 51.7784 21.4153C51.8515 21.7626 51.9493 22.8806 51.9566 22.9612C51.978 23.0946 52.0104 22.9668 52.0203 23.0244C52.2111 24.2103 52.0307 23.6288 52.0224 23.79ZM11.7159 7.23584C12.0031 6.99966 12.2954 6.77005 12.5929 6.54686C12.5847 6.58071 12.5766 6.61453 12.5686 6.64833C12.429 6.74538 12.2903 6.8439 12.1526 6.94388C12.0589 7.03598 11.9661 7.12869 11.874 7.22202C11.8213 7.2264 11.7686 7.23102 11.7159 7.23584ZM11.0855 7.9052C10.855 8.12898 10.8139 8.10762 10.7579 8.15643C10.5915 8.30292 10.4657 8.44878 10.3119 8.59881C10.4131 8.34786 10.8327 8.01826 11.0855 7.9052ZM16.559 4.19284C16.4925 4.22014 16.003 4.33124 15.5777 4.7018C15.2013 4.87275 14.8301 5.05289 14.4615 5.24388C15.0804 4.91151 15.9007 4.39094 16.2079 4.23596C16.324 4.17615 16.3633 4.19826 16.4563 4.15131C16.9922 3.87966 17.4893 3.56169 17.5968 3.6516C17.0636 3.85029 16.6441 4.15726 16.559 4.19284ZM13.4427 6.01643C13.3498 6.05097 13.2571 6.08617 13.1645 6.12202C13.4459 5.91847 13.7321 5.72038 14.0215 5.52883C13.9573 5.6022 13.8936 5.67579 13.8304 5.7496C13.7004 5.83724 13.571 5.9263 13.4427 6.01643ZM38.7688 4.10293C38.5768 4.00823 38.3844 3.9164 38.1905 3.82694C38.1919 3.85201 38.4131 3.95475 38.4874 4.00741C38.487 4.00724 38.4867 4.00707 38.4863 4.0069C38.5691 4.06561 38.5182 4.07295 38.676 4.16408C38.7069 4.14366 38.7378 4.12327 38.7688 4.10293ZM8.76442 42.7677C8.48553 42.5306 6.54033 39.8474 6.61603 40.1316C6.63265 40.2915 7.32999 41.1993 7.53583 41.4637C7.79763 41.8314 8.46985 42.8714 8.76442 42.7677ZM5.50111 37.9061C5.33624 37.9242 6.34577 39.7481 6.49476 39.8959C6.48767 39.8492 6.48817 39.7704 6.46587 39.7166C6.34877 39.4597 5.66466 38.324 5.50111 37.9061ZM47.6625 11.8561C47.6009 11.6966 47.5372 11.5374 47.4715 11.3785C47.4519 11.4486 47.4319 11.5185 47.4117 11.5882C47.4959 11.6769 47.5794 11.7662 47.6625 11.8561ZM52.5326 26.8544C52.4942 29.612 51.9933 32.3709 51.0484 34.9647C51.1045 34.7272 51.1573 34.4889 51.2066 34.2501C51.9669 32.0037 52.4179 29.4803 52.4311 27.1926C52.4657 27.0805 52.4996 26.9677 52.5326 26.8544ZM17.3478 4.03763C17.9873 3.74259 18.5178 3.48241 19.2569 3.26729C18.5906 3.57096 18.2274 3.63316 17.61 3.99267C17.6097 3.99283 17.6093 3.993 17.609 3.99316C17.5219 4.00745 17.4348 4.02227 17.3478 4.03763ZM32.7147 2.25336C32.4981 2.24612 32.2818 2.2416 32.0654 2.23972C32.3184 2.28457 32.5683 2.3329 32.8205 2.38579C32.7855 2.34154 32.7502 2.2974 32.7147 2.25336ZM41.2866 46.9598C40.7443 47.4788 39.0107 48.2259 38.5299 48.5928C38.4985 48.6178 38.8458 48.5138 38.3753 48.8666C38.7591 48.6575 39.0212 48.4937 39.0095 48.4011C39.1377 48.3684 39.2657 48.3346 39.3935 48.2997C39.5715 48.1785 39.7487 48.0546 39.9234 47.9291C39.946 48.016 39.9599 48.0047 40.2139 47.787C40.3543 47.7299 40.494 47.6716 40.6338 47.6115C40.669 47.5468 40.7038 47.4821 40.7383 47.4174C40.8755 47.3923 41.0127 47.3658 41.15 47.338C41.545 47.0135 41.2312 47.1 41.2866 46.9598ZM43.3592 45.4489C43.2905 45.5508 40.5438 47.5688 41.9112 46.8193C42.2399 46.5822 42.5623 46.3376 42.879 46.0849C42.4437 46.0679 43.4616 45.5887 43.5327 45.5286C43.8844 45.273 44.2531 44.8562 44.4848 44.6453C44.6847 44.4642 44.835 44.3893 44.9706 44.2559C45.4363 43.8054 46.1278 43.049 46.1326 42.8666C45.7978 43.2392 45.4472 43.6086 45.0795 43.9777C44.6872 44.3671 44.2717 44.6237 43.5791 45.4075C43.3719 45.5596 43.3859 45.4327 43.3592 45.4489ZM31.4315 2.12759C31.4723 2.04236 30.1743 1.9012 30.1627 1.94057C30.1573 1.95822 30.5805 2.0023 30.6393 2.01745C30.6397 2.01749 30.6401 2.01754 30.6405 2.01759C30.6651 2.02371 30.5346 2.03968 30.7309 2.07191C30.9651 2.08726 31.1987 2.10582 31.4315 2.12759ZM12.6961 46.0526C12.5508 45.9452 9.57978 43.2515 9.52538 43.1325C9.49594 43.1158 9.50092 43.1721 9.4777 43.1762C10.1885 43.7971 11.0613 44.8108 11.7458 45.3903C11.9352 45.5523 11.9134 45.462 11.9248 45.4704C11.9252 45.4708 11.9257 45.4711 11.9262 45.4715C12.0324 45.5626 12.4487 46.0665 12.6961 46.0526ZM37.3835 49.1787C37.5485 49.1289 37.7129 49.0773 37.8768 49.0239C37.901 48.9719 37.925 48.9198 37.9488 48.8678C37.9484 48.868 37.948 48.8681 37.9477 48.8683C37.7614 48.974 37.5733 49.0774 37.3835 49.1787ZM31.6894 50.7009C31.7348 50.7211 31.7802 50.7411 31.8257 50.761C32.2512 50.6932 32.6707 50.615 33.0931 50.5247C33.054 50.5491 33.0149 50.5733 32.9756 50.5975C33.6223 50.4962 33.8572 50.3336 34.1963 50.2571C34.1959 50.2572 34.1955 50.2573 34.1951 50.2574C34.2315 50.249 34.29 50.2914 34.4243 50.2555C34.733 50.1782 35.6104 49.9188 35.6953 49.8265C35.88 49.6498 34.1549 50.2548 33.815 50.3159C33.6653 50.3516 33.4739 50.3475 33.3826 50.3677C33.2827 50.3901 33.1615 50.4871 32.9156 50.5382C32.8421 50.5562 32.0348 50.6371 31.6894 50.7009ZM24.1461 50.8481C24.2678 50.9304 24.5506 50.906 24.6501 50.9284C24.6741 50.9338 24.4794 50.9633 24.7055 51.0071C24.7744 50.979 24.8432 50.9506 24.9117 50.9219C24.6555 50.9012 24.4003 50.8766 24.1461 50.8481ZM29.2599 1.93756C29.2974 1.94597 29.9914 1.99619 30.0245 1.99618C30.4477 1.95683 29.0066 1.85037 29.2599 1.93756ZM12.8513 7.00201C13.1244 6.83595 10.2022 9.23632 10.0029 9.56413C9.97268 9.5099 10.6477 8.90795 10.2603 9.18958C10.6013 8.89183 11.5027 8.0305 11.7389 7.85425C11.879 7.74391 11.9453 7.75304 11.9668 7.73687C12.0479 7.67006 12.739 7.04152 12.8513 7.00201ZM7.96227 11.9368C8.1841 11.6528 8.41248 11.3735 8.64645 11.0999C8.38471 11.4342 8.13121 11.7758 7.88732 12.1227C7.91205 12.0607 7.93703 11.9987 7.96227 11.9368ZM7.71694 12.3183C7.761 12.3356 7.04301 13.3229 6.89136 13.6078C7.00703 13.2525 7.40501 12.7898 7.71694 12.3183ZM24.6674 2.24264C25.2292 2.21737 25.452 2.00453 24.7787 2.16268C24.7583 2.16781 24.6438 2.24334 24.6674 2.24264ZM40.9202 46.7175C40.8429 46.7746 39.7911 47.3071 39.7525 47.3745C39.64 47.611 40.2792 47.1726 40.5279 47.0794C40.9303 46.9307 40.4531 47.3318 41.2834 46.7227C41.2649 46.7705 41.2462 46.8183 41.2273 46.8662C41.7345 46.5374 41.4537 46.4786 41.5281 46.3968C41.551 46.3721 41.8669 46.1704 41.9136 46.1197C42.5006 45.4969 41.005 46.6848 40.9202 46.7175ZM38.189 4.43205C39.1614 4.98307 38.7772 4.6765 39.7791 5.23569C39.8421 5.20168 38.344 4.44344 38.189 4.43205ZM48.4675 39.122C47.8836 40.1157 47.2696 40.8362 46.6827 41.7401C46.9051 41.8236 48.7027 38.9102 48.4675 39.122ZM5.33298 35.1786C6.53774 39.4801 9.93479 43.7377 13.8626 46.4091C14.2894 46.704 14.2889 46.7944 14.4508 46.8911C14.5573 46.9535 14.5738 46.8882 14.7116 46.976C18.6794 49.497 23.2302 50.7067 27.7227 50.7041C28.8884 50.7048 30.0437 50.6272 31.1952 50.4709C31.5473 50.4407 33.2822 50.2313 33.5911 49.9429C33.8279 49.7412 32.6501 50.1334 32.4442 50.1636C32.292 50.1923 32.2728 50.1268 32.1716 50.1454C32.064 50.1649 32.1613 50.1942 32.0363 50.2175C31.5043 50.3164 30.9213 50.3802 30.4359 50.437C29.5324 50.5437 28.6292 50.5973 27.7227 50.5999C23.8784 50.6121 20.098 49.6907 16.6821 47.9132C16.173 47.6453 16.3075 47.646 16.2816 47.6329C16.2812 47.6329 16.2808 47.6328 16.2804 47.6327C13.5776 46.1765 10.7224 43.9843 8.75459 41.359C7.36802 39.5212 6.25078 37.4886 5.44927 35.3467C5.41032 35.2909 5.37156 35.2349 5.33298 35.1786ZM43.0097 45.425C42.6617 45.4526 42.7409 45.6589 41.8541 46.2062C41.8048 46.2821 41.7549 46.358 41.7046 46.4337C42.1514 46.1118 42.5873 45.7749 43.0111 45.4239C43.0106 45.4243 43.0102 45.4247 43.0097 45.425ZM37.0999 48.8646C36.8445 48.7035 34.751 49.6807 33.7145 49.8559C33.5658 50.0439 35.0106 49.5847 35.3511 49.4728C35.5218 49.4272 36.4781 49.2439 37.1197 48.8862C37.1131 48.879 37.1065 48.8718 37.0999 48.8646ZM16.2911 5.06734C16.4376 4.98401 16.585 4.90211 16.7334 4.82167C16.3487 4.99629 15.9682 5.18134 15.5922 5.37681C16.1839 5.05017 16.7876 4.74931 17.4032 4.47416C17.304 4.55798 17.2058 4.64229 17.1079 4.72741C16.8336 4.83555 16.5613 4.94889 16.2911 5.06734ZM18.2557 4.11293C17.1778 4.59655 18.2705 4.01382 18.5608 3.94568C18.7332 3.90223 18.3655 4.0641 18.2557 4.11293ZM21.1656 3.16208C20.6527 3.36062 19.606 3.719 19.9401 3.47888C20.5231 3.34649 20.8712 3.18476 21.7151 3.00142C21.5994 3.05506 21.4834 3.10973 21.3686 3.16502C21.368 3.16517 21.3675 3.16532 21.3669 3.16547C21.2999 3.16403 21.2327 3.1629 21.1656 3.16208ZM17.7908 4.3938C17.0554 4.63942 19.1166 3.7772 18.4883 4.09473C18.4583 4.10659 17.8184 4.38161 17.7908 4.3938ZM7.74846 39.3971C7.63507 39.3616 7.95508 39.8497 8.06297 40.012C8.51937 40.722 9.20719 41.559 9.7786 42.2236C9.75344 42.1578 9.72862 42.092 9.70416 42.0261C8.99286 41.1955 8.33884 40.3164 7.74846 39.3971ZM11.6972 44.1822C12.1427 44.5878 12.6038 44.9769 13.0786 45.3479C13.1229 45.3828 13.369 45.4939 13.2234 45.3626C12.7 44.9902 12.1906 44.5963 11.6972 44.1822ZM45.5542 42.5197C45.221 42.8408 45.9759 41.7345 46.0728 41.8949C45.9034 42.106 45.7305 42.3143 45.5542 42.5197ZM48.0906 39.0383C47.9517 39.294 47.8082 39.5472 47.6602 39.7979C47.6425 39.7865 47.6249 39.7751 47.6072 39.7637C47.7726 39.5252 47.9337 39.2833 48.0906 39.0383ZM6.61905 37.3296C6.67391 37.6438 7.03591 38.2805 7.26871 38.6707C7.17412 38.3631 6.77657 37.7307 6.61905 37.3296ZM40.1749 46.866C40.2422 46.9041 38.6265 47.7892 39.1401 47.3997C39.4894 47.2303 39.8341 47.0525 40.1749 46.866ZM36.8165 48.4743C37.1749 48.3152 37.4604 48.2063 37.4201 48.3149C37.2274 48.396 37.0328 48.4749 36.8388 48.5505C36.8314 48.5251 36.8239 48.4997 36.8165 48.4743ZM23.2175 2.78945C23.8761 2.66233 24.537 2.56306 25.2062 2.49087C25.1828 2.50795 25.1596 2.52506 25.1364 2.5422C24.4932 2.61346 23.8569 2.70992 23.2232 2.83217C23.2213 2.81793 23.2194 2.80369 23.2175 2.78945ZM6.66797 36.8887C6.45449 36.4932 6.25309 36.0933 6.06205 35.6851C6.22032 36.1077 6.38997 36.5237 6.57287 36.9372C6.60488 36.9213 6.63688 36.9054 6.66888 36.8895C6.66858 36.8893 6.66827 36.889 6.66797 36.8887ZM14.818 6.28194C16.587 5.27982 14.3995 6.66373 13.9248 6.92083C13.9243 6.92122 13.9239 6.92161 13.9235 6.922C13.8804 6.94242 13.9394 6.85371 13.8662 6.88589C14.0461 6.78102 14.2274 6.67851 14.4096 6.5788C14.5545 6.45633 14.7011 6.3353 14.8493 6.21574C14.9067 6.18979 14.9642 6.16409 15.0217 6.13864C14.9535 6.18609 14.8856 6.23385 14.818 6.28194ZM8.77886 11.792C7.66373 13.265 8.70473 11.6792 9.36381 11.0345C9.37011 11.0488 8.88148 11.6562 8.77886 11.792ZM12.1095 8.29521C12.3254 8.1001 12.5448 7.90875 12.7676 7.72141C12.8036 7.70691 12.8396 7.69251 12.8756 7.67822C12.7067 7.82437 12.5401 7.97254 12.3753 8.12315C12.2864 8.17984 12.1978 8.2372 12.1095 8.29521ZM20.4662 3.86857C20.9131 3.74822 21.4407 3.4373 20.0266 3.92318C20.0319 3.93622 20.0371 3.94926 20.0424 3.96231C20.0979 3.94118 20.2596 3.87449 20.269 3.87266C20.2962 3.86774 20.2801 3.92165 20.4662 3.86857ZM7.1423 14.7798C7.12106 14.828 7.2131 14.9105 6.8383 15.3204C6.76721 15.4673 6.6976 15.6148 6.62947 15.7632C6.58545 15.7881 6.54149 15.8132 6.4976 15.8385C6.80749 15.2858 6.7963 15.2044 6.81615 15.1628C6.91381 14.9758 6.86336 15.126 6.93011 15.0075C7.09981 14.6998 7.49868 14.0108 7.3823 14.3618C7.34013 14.4875 7.16405 14.7323 7.1423 14.7798ZM7.85088 13.7679C7.79998 13.8261 7.90343 13.5999 7.8629 13.6424C7.82489 13.6774 7.38565 14.3017 7.44205 14.0946C7.51061 13.9893 7.57997 13.8846 7.65013 13.7806C7.68778 13.7541 7.72549 13.7278 7.76326 13.7017C7.81596 13.5915 7.86951 13.4817 7.92388 13.3722C8.07362 13.2259 8.36733 12.9023 8.10391 13.345C8.20737 13.1871 8.31299 13.0299 8.42028 12.8743C8.46049 12.7828 8.50128 12.6915 8.54266 12.6003C8.5378 12.6603 8.53316 12.7202 8.52873 12.78C8.29447 13.1035 8.0684 13.433 7.85088 13.7679ZM5.2765 19.015C5.2695 18.9884 5.26254 18.9617 5.25561 18.9351C5.04904 19.6019 4.77358 20.6487 4.84986 20.0306C5.10462 19.1214 5.41532 18.2237 5.77749 17.3507C5.81281 17.2974 5.8482 17.2446 5.88406 17.1914C5.56701 17.8229 5.82755 17.692 5.55408 18.2417C5.50991 18.3351 5.54912 18.0318 5.36632 18.6539C5.3886 18.6373 5.41092 18.6208 5.43326 18.6042C5.37977 18.7405 5.32751 18.8774 5.2765 19.015ZM4.05739 24.8587C4.18187 23.6718 4.114 24.9826 4.06328 25.2024C4.06331 25.2021 4.06333 25.2017 4.06335 25.2013C3.90854 25.7996 4.04639 24.5006 4.06137 24.4236C4.0712 24.3194 4.00436 24.0647 4.20347 23.5092C4.14178 23.9589 4.09334 24.4066 4.05739 24.8587ZM4.68927 21.0206C4.66841 21.1184 4.65964 21.0595 4.64979 21.1016C4.64971 21.102 4.64962 21.1024 4.64953 21.1027C4.48999 21.7241 4.25444 23.2211 4.17216 23.3768C4.20406 22.9049 4.62388 20.8211 4.72516 20.7167C4.71259 20.8179 4.70062 20.9192 4.68927 21.0206ZM6.11213 16.7717C6.3207 16.4364 5.95766 17.2393 5.85124 17.4445C5.82984 17.4834 5.89558 17.1205 6.11213 16.7717ZM30.5104 3.36716C31.3554 3.44324 30.2557 3.25449 30.6459 3.24631C30.4839 3.22991 30.3214 3.21513 30.1586 3.20201C30.2768 3.25607 30.3941 3.31113 30.5104 3.36716ZM49.9675 31.18C49.9161 31.3666 49.983 31.2874 49.9801 31.3039C49.9506 31.4277 49.8846 31.5353 49.8772 31.5834C49.7354 32.4729 49.9204 31.9043 49.9325 31.8971C49.9835 31.8895 49.9794 32.1344 50.1131 31.8266C50.145 31.6276 50.1744 31.4281 50.2012 31.2281C50.2486 31.1358 50.2952 31.0437 50.3412 30.9512C50.3649 30.5493 50.2465 31.0584 50.1594 31.1C50.1258 31.1157 50.1696 30.7458 49.9675 31.18ZM31.9848 3.73183C32.13 3.69416 32.4753 3.68248 32.1643 3.5519C32.164 3.55182 32.1636 3.55175 32.1632 3.55168C32.1057 3.52754 31.8618 3.47362 31.789 3.44361C31.2339 3.43336 31.4318 3.55275 31.9848 3.73183ZM50.3188 27.6425C50.3578 27.3265 50.3903 27.0079 50.4159 26.6866C50.4644 26.6925 50.5129 26.6985 50.5614 26.7045C50.5448 26.8775 50.5261 27.0496 50.5056 27.2209C50.5252 27.2818 50.5447 27.3428 50.5639 27.404C50.6303 27.1929 50.6937 26.9794 50.7539 26.7636C50.7487 26.6654 50.743 26.5671 50.7366 26.4688C50.726 26.3056 50.7138 26.1431 50.7 25.9812C50.6758 26.1011 50.6506 26.2209 50.6244 26.3405C50.5947 25.7069 50.7131 25.8428 50.7407 25.3165C50.6889 25.1384 50.6352 24.9605 50.5796 24.7849C50.608 24.5222 50.632 24.261 50.6509 23.9958C50.5858 23.5604 50.5461 23.528 50.5279 23.8263C50.4479 23.617 50.5104 23.3698 50.4519 23.1144C50.4471 23.0934 50.3988 23.1413 50.3956 23.1226C50.1633 21.7936 50.2858 21.8442 50.2551 21.6279C50.2306 21.4755 50.0036 20.9037 49.9687 20.9035C49.9205 20.9059 50.0551 22.1578 49.5784 20.2591C49.733 21.264 50.048 22.3718 50.0792 21.6021C50.1393 21.9194 50.4012 23.3189 50.3967 23.4106C50.4046 23.5429 50.3326 23.5054 50.3495 23.6699C50.357 23.7658 50.5492 24.0106 50.465 24.7932C50.4965 24.8901 50.5274 24.9874 50.5578 25.0853C50.5414 25.1794 50.5245 25.2746 50.5069 25.3673C50.4251 25.1807 50.3412 24.9937 50.2555 24.8106C50.3669 25.4704 50.2613 26.0297 50.3177 26.4688C50.3252 26.5274 50.3357 26.5838 50.35 26.638C50.3266 27.0344 50.3006 27.2238 50.2415 27.0534C50.237 27.1714 50.2316 27.2891 50.2253 27.4065C50.2568 27.4849 50.288 27.5635 50.3188 27.6425ZM34.406 4.24924C34.7695 4.42763 34.9474 4.35054 34.8903 4.32279C34.5658 4.1707 34.2155 4.15756 34.406 4.24924ZM50.1984 30.496C50.3217 30.0737 50.4323 29.6491 50.5307 29.2182C50.4789 29.212 50.427 29.2058 50.3751 29.1996C50.3285 29.6337 50.2698 30.0645 50.1984 30.496ZM30.377 3.44215C30.3399 3.40692 30.3026 3.3718 30.2651 3.3368C29.7711 3.38887 29.3044 3.19318 29.0589 3.21028C29.0061 3.21397 29.109 3.27371 29.2076 3.29243C29.2715 3.29854 30.2895 3.43569 30.377 3.44215ZM11.6565 9.45524C11.7786 9.31879 11.9026 9.18351 12.028 9.0496C12.0398 9.07774 12.0516 9.10586 12.0634 9.13394C11.9996 9.19755 11.9361 9.26154 11.8731 9.32584C11.8007 9.3685 11.7285 9.41164 11.6565 9.45524ZM13.2116 8.07751C13.4707 7.87981 13.7342 7.68739 14.001 7.50094C13.014 8.25463 13.8416 7.66047 13.2644 8.14429C13.2468 8.12203 13.2292 8.09977 13.2116 8.07751ZM15.9817 6.30117C15.9561 6.33646 15.9307 6.37177 15.9053 6.40711C15.6251 6.56841 15.3471 6.73631 15.0735 6.90948C15.2803 6.85187 15.4874 6.79767 15.6947 6.74689C15.7961 6.68682 15.8976 6.62776 15.9998 6.56934C15.9934 6.48015 15.9874 6.39076 15.9817 6.30117ZM46.4352 38.842C46.3305 38.9978 46.0165 39.581 46.0571 39.576C46.2506 39.3777 46.4411 39.1746 46.6276 38.9682C46.5818 38.9364 46.5359 38.9045 46.4901 38.8726C46.535 38.856 46.5798 38.8392 46.6247 38.8222C46.6942 38.6813 46.7622 38.5397 46.8288 38.3977C46.9124 38.3574 46.9959 38.3164 47.0793 38.2747C47.0742 38.1784 47.0683 38.0828 47.0619 37.9873C46.5817 38.5732 46.6716 38.5979 46.5856 38.729C46.5411 38.7946 46.4842 38.817 46.4539 38.8306C46.4477 38.8344 46.4414 38.8382 46.4352 38.842ZM49.9214 30.1446C49.7489 31.0219 49.7618 31.5546 49.48 32.1511C49.8695 31.8184 50.1484 29.1218 50.3862 28.185C50.3557 28.0831 50.3245 27.9814 50.2928 27.8801C50.289 28.4023 50.1672 28.7477 50.1247 28.9985C50.0905 29.1965 50.1335 29.1804 50.1311 29.1956C50.131 29.1963 50.1309 29.197 50.1308 29.1978C50.0505 29.6615 49.9872 29.795 49.9214 30.1446ZM29.6825 3.5155C29.9233 3.58564 30.351 3.63272 30.3643 3.56392C30.1266 3.51352 29.8906 3.4672 29.6524 3.42452C29.7002 3.44704 29.6413 3.50332 29.6825 3.5155ZM16.3966 6.26891C16.5759 6.19264 16.9726 5.96678 16.7724 6.00996C16.7362 6.01686 16.3516 6.26609 16.5409 6.05397C16.1489 6.26761 16.2948 6.31193 16.3966 6.26891ZM47.5999 15.1712C47.5198 15.0318 47.4383 14.8934 47.3554 14.7558C47.3081 14.7406 47.2608 14.7255 47.2135 14.7106C47.3439 14.862 47.4727 15.0156 47.5999 15.1712ZM27.5994 3.45699C27.3812 3.31947 27.0144 3.45282 26.6067 3.35648C26.4575 3.36103 26.3058 3.36716 26.1559 3.37465C26.1555 3.37467 26.1552 3.37469 26.1548 3.37471C26.1532 3.41157 26.1516 3.44842 26.15 3.48526C26.6362 3.46064 27.1131 3.45152 27.5994 3.45699ZM50.3146 24.6875C50.3302 24.5878 50.3451 24.488 50.3594 24.3881C50.32 24.2165 50.2787 24.0445 50.2354 23.8729C50.2267 23.9693 50.2175 24.0657 50.2075 24.1618C50.2451 24.3359 50.2808 24.5112 50.3146 24.6875ZM24.9797 3.59781C25.5017 3.56228 25.6886 3.42931 25.0188 3.4937C24.7367 3.52394 24.4337 3.64188 24.9797 3.59781ZM39.4852 45.5084C39.6421 45.4314 39.7981 45.3524 39.9533 45.2715C39.9832 45.2089 40.0128 45.1462 40.042 45.0835C39.859 45.2277 39.6734 45.3693 39.4852 45.5084ZM14.2723 7.56827C14.2768 7.53828 14.2815 7.50827 14.2861 7.47823C14.4213 7.39012 14.5573 7.30343 14.6942 7.21819C14.6727 7.25873 14.6514 7.29928 14.6302 7.33984C14.5102 7.41487 14.3909 7.49102 14.2723 7.56827ZM40.4839 44.897C40.6032 44.8248 40.7219 44.7514 40.8399 44.6768C40.906 44.6085 40.9716 44.5398 41.0367 44.4709C40.9208 44.5328 40.8044 44.5937 40.6876 44.6534C40.6204 44.7349 40.5525 44.8161 40.4839 44.897ZM20.1449 4.63626C20.3431 4.59713 21.0876 4.2756 20.3862 4.47124C19.9409 4.60145 20.1152 4.64227 20.1449 4.63626ZM19.1336 5.02984C19.8723 4.8118 19.2271 4.74709 18.4467 5.26337C19.2909 4.88829 19.0912 5.04581 19.1336 5.02984ZM13.3585 8.45148C13.3433 8.46326 13.3078 8.44424 13.1859 8.53862C12.7463 8.87695 12.1823 9.34623 11.8888 9.61481C11.1401 10.2208 9.26453 12.471 9.01095 12.7134C8.95095 12.7582 9.00025 12.5896 8.98012 12.6109C8.91994 12.6731 8.65238 13.0882 8.66935 12.9884C8.95434 12.5965 9.25167 12.2132 9.56027 11.84C9.51003 11.9522 9.4607 12.0645 9.41227 12.177C10.1614 11.237 9.91647 11.5509 10.0873 11.241C10.2435 11.1063 10.4014 10.974 10.5608 10.8443C10.8422 10.5018 11.1334 10.1666 11.4342 9.83928C11.3763 9.92405 11.319 10.0091 11.2624 10.0943C11.7692 9.65829 11.6187 9.7707 11.8513 9.48456C11.8664 9.49964 11.8815 9.51472 11.8967 9.52979C12.3387 9.05971 12.4816 9.03125 12.5882 8.94051C12.8096 8.76181 12.9254 8.3082 13.9695 7.86287C14.2733 7.4931 14.4127 7.70685 14.563 7.44874C15.2927 7.13238 14.0237 7.90382 13.4702 8.33876C13.4699 8.33898 13.4696 8.33921 13.4693 8.33943C13.4271 8.37144 13.5079 8.33823 13.3585 8.45148ZM16.6515 6.16769C16.2869 6.48219 17.9533 5.654 17.3258 5.77809C17.2403 5.81369 17.1551 5.84982 17.0701 5.88647C16.929 5.97907 16.7894 6.07285 16.6505 6.16821C16.6508 6.16804 16.6511 6.16787 16.6515 6.16769ZM33.6092 4.42262C35.2609 4.86199 34.3561 4.50152 33.7771 4.41059C33.6617 4.39316 33.5953 4.39626 33.6092 4.42262ZM49.533 31.3691C49.5475 31.3975 49.562 31.4258 49.5764 31.4543C49.6978 30.9036 49.9667 29.8445 49.8239 29.837C49.7444 30.3533 49.6482 30.8599 49.533 31.3691ZM50.0375 26.964C50.0266 27.0851 49.9807 27.5743 50.0343 27.5174C50.083 27.3066 50.1288 27.094 50.1713 26.8795C50.152 26.7789 50.1321 26.6783 50.1115 26.5779C50.1016 26.7182 50.041 26.9315 50.0375 26.964Z" fill="url(#paint0_linear_4030_3497)"></path><path d="M27.3278 35.2109V18.5549H29.5598V35.2109H27.3278ZM23.9198 20.5709V18.5549H29.3198V20.5709H23.9198Z" fill="#1B1D4A"></path><defs><linearGradient id="paint0_linear_4030_3497" x1="53.3783" y1="26.4688" x2="4.84058" y2="26.4688" gradientUnits="userSpaceOnUse"><stop stop-color="#55FF9A"></stop><stop offset="1" stop-color="#33995C"></stop></linearGradient></defs></svg> 